<svg id="Layer_1" data-name="Layer 1" xmlns="http://www.w3.org/2000/svg" viewBox="0 0 79.22 113.78"><defs><style>.cls-1{fill:#fff;}.cls-2{stroke:#000;stroke-miterlimit:10;}</style></defs><title>Cara</title><path class="cls-1" d="M478.81,492.5s-7.39-4.67-7.78-11.67,13.62-15.56,13.62-15.56,3.11-3.5,6.22,10.5C490.87,475.77,483.48,492.89,478.81,492.5Z" transform="translate(-461.3 -464.25)"/><path d="M478.78,492.6A16.85,16.85,0,0,1,475,490a15.73,15.73,0,0,1-3-3.54,12.25,12.25,0,0,1-1.72-4.45c0-.4-.12-.79-.14-1.21a6.13,6.13,0,0,1,.09-1.29,8.21,8.21,0,0,1,.81-2.34c1.57-2.84,3.95-4.79,6.21-6.77s4.62-3.83,7.09-5.61l-.13.11a2,2,0,0,1,2.31-.46,4.33,4.33,0,0,1,1.56,1.31,13.34,13.34,0,0,1,1.75,3.16,34.05,34.05,0,0,1,1.16,3.3c.36,1.11.61,2.23.92,3.34l.08.31-.14.35a64.22,64.22,0,0,1-5.06,9.47,31,31,0,0,1-3.31,4.28,11.22,11.22,0,0,1-2.05,1.83A3.77,3.77,0,0,1,478.78,492.6Zm.06-.19a3.84,3.84,0,0,0,2.13-1.19,16.42,16.42,0,0,0,1.64-2,46.76,46.76,0,0,0,2.68-4.47c.84-1.53,1.61-3.1,2.38-4.67s1.52-3.17,2.23-4.75l-.07.66c-.24-1.09-.44-2.2-.74-3.27a32.48,32.48,0,0,0-.94-3.18,15.07,15.07,0,0,0-1.32-2.9,3.15,3.15,0,0,0-.91-1,.72.72,0,0,0-.84,0l-.13.11a37.38,37.38,0,0,0-7.28,5.1,22.46,22.46,0,0,0-3,3.28,15.86,15.86,0,0,0-2.17,3.7,8.75,8.75,0,0,0-.55,1.93,4.94,4.94,0,0,0-.05.94l.1,1a12.64,12.64,0,0,0,1.32,3.94A25,25,0,0,0,478.84,492.41Z" transform="translate(-461.3 -464.25)"/><path class="cls-1" d="M478.15,492.37s-5.7-5.3-6.92-10.19c0,0,8.36-1.43,10.18-3.26,2-2,.82.41,3.26-13.44,0,0,4.08-2.45,6.52,11S478.15,492.37,478.15,492.37Z" transform="translate(-461.3 -464.25)"/><path d="M478.12,492.47a22.49,22.49,0,0,1-2.43-2.08,26.49,26.49,0,0,1-2.15-2.33,20.52,20.52,0,0,1-1.83-2.63,13,13,0,0,1-1.32-3l-.24-.87.93-.19c2-.39,4-.87,6-1.34a21.13,21.13,0,0,0,2.86-.86,4.72,4.72,0,0,0,1.19-.67,9.08,9.08,0,0,0,1.06-1,4,4,0,0,0,.43-1.33c.1-.5.2-1,.28-1.52.17-1,.33-2,.47-3.08.31-2.06.54-4.12.79-6.19l0-.25.23-.13a2.74,2.74,0,0,1,2.86.27,6.14,6.14,0,0,1,1.79,1.88,18.09,18.09,0,0,1,2,4.44c.25.76.44,1.53.65,2.29l.53,2.31c.13.81.2,1.64.29,2.46s-.05,1.67-.1,2.51a12.3,12.3,0,0,1-5.29,8.2A19,19,0,0,1,478.12,492.47Zm.06-.19a23.59,23.59,0,0,0,8-4.17,11.45,11.45,0,0,0,4.14-7.25c0-.71.1-1.41.08-2.13l-.21-2.16-.41-2.24c-.18-.74-.32-1.48-.52-2.21a20.49,20.49,0,0,0-1.55-4.12,5.48,5.48,0,0,0-1.22-1.62,2,2,0,0,0-.76-.42,1.39,1.39,0,0,0-.73,0l.26-.38c-.46,2-.93,4.05-1.26,6.09-.18,1-.32,2-.45,3.08l-.18,1.55A5.54,5.54,0,0,1,483,478a7.16,7.16,0,0,1-1.07,1.29,5.48,5.48,0,0,1-1.39,1.05,18.41,18.41,0,0,1-3,1.29,37.14,37.14,0,0,1-6.15,1.45l.69-1a18.79,18.79,0,0,0,2.51,5.34c.54.86,1.14,1.69,1.75,2.52Z" transform="translate(-461.3 -464.25)"/><path d="M483.2,490.8a3.59,3.59,0,0,1-1.35-.85,3.11,3.11,0,0,1-.82-1.18,11.57,11.57,0,0,0-.35-1.49,2.83,2.83,0,0,0-1-1.1,5.35,5.35,0,0,1-1.11-1,6.15,6.15,0,0,1-.88-1.15,5.92,5.92,0,0,1-.74-2.95l.17-.11a6.16,6.16,0,0,1,2.37,1.91,6.78,6.78,0,0,1,.67,1.28,5.18,5.18,0,0,1,.44,1.43,2.92,2.92,0,0,0,.59,1.34,12.94,12.94,0,0,0,1.21.94,3,3,0,0,1,.73,1.25,3.75,3.75,0,0,1,.21,1.58Z" transform="translate(-461.3 -464.25)"/><path d="M490.2,484.19a4.24,4.24,0,0,1-1.41-.91,3.6,3.6,0,0,1-.9-1.26,15,15,0,0,0-.42-1.57,3.2,3.2,0,0,0-1-1.16,6.48,6.48,0,0,1-1.19-1.07,8.51,8.51,0,0,1-.95-1.22,6.74,6.74,0,0,1-.89-3.12l.16-.11a6.78,6.78,0,0,1,2.51,2.05,7.39,7.39,0,0,1,.75,1.35,6.12,6.12,0,0,1,.52,1.51,3.28,3.28,0,0,0,.66,1.41,14.22,14.22,0,0,0,1.28,1,3.52,3.52,0,0,1,.81,1.32,4.14,4.14,0,0,1,.28,1.66Z" transform="translate(-461.3 -464.25)"/><path class="cls-1" d="M515.33,480c1.57-.78,14.14-17.91,19.37-14s2.62,24.54-4.71,31.55S515.33,480,515.33,480Z" transform="translate(-461.3 -464.25)"/><path d="M515.19,480a5.06,5.06,0,0,0,.48-.54l.39-.54.77-1.09c.52-.72,1-1.46,1.57-2.16,1.07-1.44,2.2-2.84,3.41-4.18a38.25,38.25,0,0,1,3.9-3.84,15.06,15.06,0,0,1,4.9-3,5.6,5.6,0,0,1,3.29-.16,4.05,4.05,0,0,1,1.53.91,5.19,5.19,0,0,1,1,1.26,9.42,9.42,0,0,1,1,2.73,21.47,21.47,0,0,1,.39,2.72,57.65,57.65,0,0,1-.26,10.83,32,32,0,0,1-2.91,10.59,18.67,18.67,0,0,1-3.17,4.8,9.28,9.28,0,0,1-1.2,1.1,6.27,6.27,0,0,1-1.69.8,5.1,5.1,0,0,1-3.73-.45,9.3,9.3,0,0,1-2.47-2,15.6,15.6,0,0,1-1.73-2.33,31.36,31.36,0,0,1-2.48-4.95,47.87,47.87,0,0,1-1.75-5.14c-.26-.86-.46-1.74-.66-2.62l-.29-1.31c0-.22-.08-.45-.12-.67l-.06-.33,0-.17v-.08A.59.59,0,0,1,515.19,480Zm.28.12s0,0,0,0l0,.08.08.15.14.3.29.61.57,1.21,1.18,2.38c.79,1.58,1.6,3.15,2.45,4.67a40.89,40.89,0,0,0,2.75,4.33,10.15,10.15,0,0,0,3.25,3.13,2,2,0,0,0,1.43.22,3.39,3.39,0,0,0,1.5-1,17.34,17.34,0,0,0,2.9-3.92,45.78,45.78,0,0,0,3.81-9.59,26.16,26.16,0,0,0,.9-10.4,9.74,9.74,0,0,0-1.76-4.65,2.55,2.55,0,0,0-1.62-1,3.91,3.91,0,0,0-1.93.43,21.89,21.89,0,0,0-4.09,2.68c-1.33,1.07-2.63,2.23-3.92,3.42l-3.88,3.61c-.64.61-1.31,1.21-2,1.81l-1,.87c-.18.14-.36.28-.55.41S515.62,480.1,515.47,480.09Z" transform="translate(-461.3 -464.25)"/><path class="cls-1" d="M522.06,484.07s5.54-11.87,8.31-9.1-2,13.86-2,13.86Z" transform="translate(-461.3 -464.25)"/><path d="M521.91,484.11l.06-.57.07-.45c0-.3.12-.6.18-.89a15.69,15.69,0,0,1,.55-1.72,16,16,0,0,1,1.62-3.23,8,8,0,0,1,2.72-2.64,4.39,4.39,0,0,1,2.09-.68,2.11,2.11,0,0,1,1.18.39,2.72,2.72,0,0,1,.7.83,9.46,9.46,0,0,1,.86,3.69,15.67,15.67,0,0,1-.08,3.69,24.54,24.54,0,0,1-2,6.91l-.92,1.85-1.44-1.22A32.62,32.62,0,0,1,521.91,484.11Zm.29-.07a54.73,54.73,0,0,1,7.12,3.54l-2.35.63c.68-2.1,1.66-4.19,2.38-6.3.37-1.06.83-2.1,1.12-3.18a4.1,4.1,0,0,0-.17-3.1c-.61-1-1.33-.36-1.92.48s-1.11,1.79-1.78,2.66-1.31,1.81-2,2.71c-.35.46-.73.9-1.11,1.35-.21.22-.39.45-.61.66l-.31.33-.17.16-.08.08S522.24,484.15,522.2,484Z" transform="translate(-461.3 -464.25)"/><path class="cls-1" d="M504.21,577.85S556,581.22,535,523.19a41.06,41.06,0,0,1-2-8.18c-.7-5.05-2.1-14-4.36-24.25-3.52-16-43.17-15.54-49.53,0-12.68,31-16.43,39.2-16.43,52.35C462.67,550.26,465.72,573.86,504.21,577.85Z" transform="translate(-461.3 -464.25)"/><path d="M504.23,577.7a46.68,46.68,0,0,0,8.83-.55,42.29,42.29,0,0,0,8.57-2.19,27.11,27.11,0,0,0,13.64-10.69,27.82,27.82,0,0,0,3.31-8.08L539,554c.06-.36.14-.71.18-1.08l.09-1.09.17-2.19v-2.19a63,63,0,0,0-2.95-17.3c-.37-1.43-.88-2.81-1.35-4.21l-1.44-4.22a41.74,41.74,0,0,1-1.13-4.4c-.3-1.49-.48-3-.71-4.42q-1.37-8.77-3.19-17.45l-1-4.33A10.07,10.07,0,0,0,526,487.5a15.52,15.52,0,0,0-6.64-4.85,38.4,38.4,0,0,0-16.94-2.42,43.7,43.7,0,0,0-8.52,1.42,28.54,28.54,0,0,0-7.79,3.31,14.19,14.19,0,0,0-5.48,5.83c-.29.54-.55,1.31-.83,2l-.83,2.07L477.35,499c-2.22,5.49-4.44,11-6.57,16.5a116.54,116.54,0,0,0-5.47,16.65,48.46,48.46,0,0,0-1.19,8.56l-.08,2.17c0,.72,0,1.41,0,2.12s.08,1.42.2,2.12a18.55,18.55,0,0,0,.34,2.11,28.59,28.59,0,0,0,2.8,8.06,32.14,32.14,0,0,0,2.21,3.69c.42.59.9,1.13,1.35,1.69a15.79,15.79,0,0,0,1.42,1.63A41.06,41.06,0,0,0,487,573.68C492.5,575.89,498.38,576.86,504.23,577.7Zm0,.3-4.42-.59-2.21-.3c-.73-.12-1.45-.3-2.18-.45-1.45-.34-2.92-.6-4.36-1l-4.28-1.32a42.78,42.78,0,0,1-15.49-9,16.3,16.3,0,0,1-1.58-1.64c-.51-.57-1-1.12-1.52-1.71a36.21,36.21,0,0,1-2.56-3.81,30,30,0,0,1-3.42-8.52,22.26,22.26,0,0,1-.46-2.27c-.15-.76-.21-1.53-.29-2.3a39.39,39.39,0,0,1-.11-4.59,51.37,51.37,0,0,1,1.06-9.08,119.88,119.88,0,0,1,5.49-17.15c2.16-5.55,4.46-11,6.73-16.5l1.72-4.1.86-2.05c.3-.7.52-1.33.93-2.11a16.9,16.9,0,0,1,6.61-6.89,31.3,31.3,0,0,1,8.56-3.49,46.14,46.14,0,0,1,9-1.35,40.61,40.61,0,0,1,17.94,2.81c.72.28,1.4.68,2.09,1a23,23,0,0,1,2,1.28,14.52,14.52,0,0,1,3.38,3.35,12.24,12.24,0,0,1,1.94,4.42l.9,4.37q1.74,8.75,3,17.58c.22,1.49.38,3,.65,4.37a40.74,40.74,0,0,0,1,4.23l1.38,4.21c.46,1.42,1,2.83,1.31,4.28a64.69,64.69,0,0,1,2.64,17.72l0,2.25-.24,2.24-.12,1.12c-.06.37-.15.74-.22,1.11-.15.73-.29,1.47-.46,2.2a28.53,28.53,0,0,1-3.64,8.21,24.7,24.7,0,0,1-6.18,6.47,32.73,32.73,0,0,1-7.89,4.16,42.72,42.72,0,0,1-8.63,2.21A47.26,47.26,0,0,1,504.2,578Z" transform="translate(-461.3 -464.25)"/><path class="cls-1" d="M494.2,544.34s18.72-2.13,14.28,5-11.19,10.81-21.23,1.93C487.25,551.29,484.16,544.34,494.2,544.34Z" transform="translate(-461.3 -464.25)"/><path d="M494.19,544.19c1.81-.17,3.64-.5,5.49-.84a16.17,16.17,0,0,1,5.73-.21,8.18,8.18,0,0,1,3,1.08,4.24,4.24,0,0,1,1.34,1.33,3,3,0,0,1,.4,2,5.6,5.6,0,0,1-1.54,2.78c-.3.37-.57.74-.9,1.09s-.59.72-.92,1.06a18.79,18.79,0,0,1-4.28,3.78,9.65,9.65,0,0,1-5.85,1.43,14.39,14.39,0,0,1-5.73-1.82,21.32,21.32,0,0,1-4.67-3.43l-.3-.27-.09-.26a6.92,6.92,0,0,1-.43-1.89,5.73,5.73,0,0,1,.16-1.92,4.68,4.68,0,0,1,2.31-3,8,8,0,0,1,3.22-.83c.53,0,1-.08,1.56-.08S493.68,544.2,494.19,544.19Zm0,.3c-.51,0-1,.06-1.51.12a11.91,11.91,0,0,0-1.46.34,9.36,9.36,0,0,0-1.32.61,4.43,4.43,0,0,0-1,.87,3,3,0,0,0-.73,2.07,5.47,5.47,0,0,0,.15,1.12,4.68,4.68,0,0,0,.35,1l-.39-.53a50.91,50.91,0,0,0,4.19,3,19.68,19.68,0,0,0,2.2,1.21l1.15.42a11.85,11.85,0,0,0,1.17.31,9.23,9.23,0,0,0,4.85-.2,9.56,9.56,0,0,0,4.24-3,12,12,0,0,0,1.47-2.24,3.66,3.66,0,0,0,.64-2.18,1,1,0,0,0-.33-.59,2.7,2.7,0,0,0-.73-.43,11.92,11.92,0,0,0-2.22-.66C501.61,545.18,497.85,544,494.21,544.49Z" transform="translate(-461.3 -464.25)"/><path class="cls-2" d="M466,523.94c3.84,3.57,27.56,15.63,31.84.07s4.28-25.29,3.5-35-5.78-9.07-5.78-9.07-15.8,1.47-19.79,18.89Z" transform="translate(-461.3 -464.25)"/><path class="cls-1" d="M483,517.45c-.09-2,.31-5.64,3.19-5.2s3.81,3.77,4.55,6c.61,1.82,3.51,1,2.9-.8-1.27-3.81-3.45-8.45-8.2-8.25-4.19.18-5.6,4.72-5.44,8.23.09,1.92,3.09,1.93,3,0Z" transform="translate(-461.3 -464.25)"/><path d="M512.92,517.45c-.1-2,.3-5.64,3.18-5.2s3.81,3.77,4.56,6c.6,1.82,3.5,1,2.89-.8-1.27-3.81-3.44-8.45-8.2-8.25-4.19.18-5.6,4.72-5.43,8.23.09,1.92,3.09,1.93,3,0Z" transform="translate(-461.3 -464.25)"/><path d="M523.05,566.1a26.35,26.35,0,0,0,8.16-17.61c.12-1.92-2.88-1.92-3,0A23.13,23.13,0,0,1,520.92,564c-1.4,1.33.73,3.45,2.13,2.12Z" transform="translate(-461.3 -464.25)"/></svg>