<svg id="Layer_1" data-name="Layer 1" xmlns="http://www.w3.org/2000/svg" viewBox="0 0 121.41 175.55"><defs><style>.cls-1{fill:#fff;}.cls-2{stroke:#000;stroke-miterlimit:10;}</style></defs><title>logocara</title><path class="cls-1" d="M450,314.94s-11.43-7.22-12-18.05S459,272.83,459,272.83s4.82-5.42,9.63,16.24C468.62,289.07,457.19,315.54,450,314.94Z" transform="translate(-423.67 -271.59)"/><path d="M449.94,315a28.77,28.77,0,0,1-5.66-4.18,25.87,25.87,0,0,1-4.48-5.49,19.13,19.13,0,0,1-2.55-6.74c-.08-.61-.18-1.2-.21-1.82v-1l.12-1a13,13,0,0,1,1.18-3.5c2.29-4.31,5.85-7.46,9.32-10.52,1.75-1.53,3.56-3,5.39-4.41s3.68-2.82,5.63-4.14l-.13.11a2.7,2.7,0,0,1,3.16-.57l.7.38.57.48a8.77,8.77,0,0,1,1,1.07,15.28,15.28,0,0,1,1.45,2.36,23.73,23.73,0,0,1,1.14,2.46,53.16,53.16,0,0,1,1.73,5.07c.54,1.7.92,3.43,1.38,5.15l.08.32-.15.33a110.3,110.3,0,0,1-7.69,14.64A51,51,0,0,1,457,310.8a18.52,18.52,0,0,1-3.06,2.87A5.78,5.78,0,0,1,449.94,315Zm.06-.19a5.79,5.79,0,0,0,3.44-1.74,23,23,0,0,0,2.64-3,66.5,66.5,0,0,0,4.32-6.86c1.33-2.36,2.56-4.78,3.78-7.21s2.37-4.9,3.46-7.37l-.06.65c-.4-1.69-.72-3.41-1.19-5.07a50.73,50.73,0,0,0-1.53-5,21,21,0,0,0-2.15-4.56,8.63,8.63,0,0,0-.74-.93l-.4-.4-.44-.29a1.44,1.44,0,0,0-1.7.11l-.14.11h0a65.46,65.46,0,0,0-11.2,8,39.81,39.81,0,0,0-4.71,5,25.56,25.56,0,0,0-3.54,5.73,13.41,13.41,0,0,0-.92,3.08l-.09.78v.77c0,.54.12,1.09.17,1.63a19.64,19.64,0,0,0,2.15,6.23,30,30,0,0,0,3.9,5.52c.75.86,1.55,1.68,2.37,2.48S449.14,314.15,450,314.85Z" transform="translate(-423.67 -271.59)"/><path class="cls-1" d="M449,314.74s-8.82-8.19-10.71-15.76c0,0,12.93-2.22,15.75-5,3.15-3.15,1.26.63,5-20.79,0,0,6.3-3.79,10.09,17S449,314.74,449,314.74Z" transform="translate(-423.67 -271.59)"/><path d="M448.92,314.84a40.82,40.82,0,0,1-3.6-3.31,41.71,41.71,0,0,1-3.22-3.66,34.42,34.42,0,0,1-2.75-4.06,21,21,0,0,1-2-4.62l-.24-.88.93-.17c3.11-.61,6.23-1.32,9.28-2.11a31,31,0,0,0,4.46-1.46,6.9,6.9,0,0,0,1.89-1.14,12.62,12.62,0,0,0,1.65-1.56,6.78,6.78,0,0,0,.64-2.15c.15-.79.29-1.58.41-2.37l.72-4.76,1.35-9.54,0-.26.22-.12a3.93,3.93,0,0,1,4.05.45,9.36,9.36,0,0,1,2.6,2.85,28.44,28.44,0,0,1,3,6.78c.37,1.17.65,2.35,1,3.52l.78,3.56a22.92,22.92,0,0,1,.28,7.49,18.07,18.07,0,0,1-2.65,7.08,20,20,0,0,1-5.21,5.35,28.45,28.45,0,0,1-6.52,3.38,29.73,29.73,0,0,1-3.48,1.06A24,24,0,0,1,448.92,314.84Zm.06-.2a34.53,34.53,0,0,0,12.6-6.15,19.45,19.45,0,0,0,4.52-5.11,17,17,0,0,0,2.18-6.36,23,23,0,0,0-.22-6.82l-.66-3.49c-.29-1.14-.52-2.3-.85-3.43a30,30,0,0,0-2.5-6.47l-.43-.74-.5-.67a4.55,4.55,0,0,0-.53-.62,3.74,3.74,0,0,0-.59-.54,3.21,3.21,0,0,0-.64-.42l-.34-.17-.35-.1a2.34,2.34,0,0,0-1.35.07l.26-.38c-.66,3.14-1.32,6.28-1.82,9.45-.26,1.58-.49,3.17-.7,4.76l-.31,2.39a8.49,8.49,0,0,1-.59,2.48,12.39,12.39,0,0,1-1.66,1.9,8.09,8.09,0,0,1-2.1,1.52,30.74,30.74,0,0,1-4.55,1.88,66,66,0,0,1-9.47,2.21l.69-1.05a27.72,27.72,0,0,0,4.06,8.35c.87,1.32,1.83,2.59,2.81,3.86S448,313.49,449,314.64Z" transform="translate(-423.67 -271.59)"/><path d="M456.8,312.29a7.51,7.51,0,0,1-1.77-1.52,7,7,0,0,1-1.25-1.85c-.29-.69-.42-1.49-.77-2.15a6.75,6.75,0,0,0-1.4-1.76,12.76,12.76,0,0,1-1.54-1.67,15.33,15.33,0,0,1-1.3-1.81,13.15,13.15,0,0,1-1.59-4.28l.16-.11a13.25,13.25,0,0,1,3.23,3.24,17.61,17.61,0,0,1,1.1,1.94,12.5,12.5,0,0,1,.86,2.1,6.75,6.75,0,0,0,1,2c.45.59,1.12,1.05,1.63,1.6a7.45,7.45,0,0,1,1.16,1.91,7.71,7.71,0,0,1,.63,2.25Z" transform="translate(-423.67 -271.59)"/><path d="M467.63,302.06a9.65,9.65,0,0,1-3.24-3.58c-.33-.74-.5-1.58-.89-2.27a7.71,7.71,0,0,0-1.51-1.87,13.73,13.73,0,0,1-1.64-1.78,17.62,17.62,0,0,1-1.42-1.92,14.8,14.8,0,0,1-1.83-4.52l.17-.11a14.63,14.63,0,0,1,3.44,3.45,17.08,17.08,0,0,1,1.21,2.06,13.77,13.77,0,0,1,1,2.21,7.45,7.45,0,0,0,1.13,2.12c.49.63,1.19,1.12,1.74,1.71a8.29,8.29,0,0,1,1.27,2,8.64,8.64,0,0,1,.75,2.37Z" transform="translate(-423.67 -271.59)"/><path class="cls-1" d="M506.45,295.66c2.43-1.21,21.86-27.71,30-21.69s4.05,37.95-7.29,48.79S506.45,295.66,506.45,295.66Z" transform="translate(-423.67 -271.59)"/><path d="M506.31,295.6a6.06,6.06,0,0,0,.76-.78l.64-.8L509,292.4c.84-1.08,1.68-2.18,2.55-3.25,1.72-2.16,3.51-4.28,5.39-6.31a64,64,0,0,1,6-5.82,31,31,0,0,1,3.42-2.55,18.37,18.37,0,0,1,3.94-2,8.08,8.08,0,0,1,4.72-.31,6.75,6.75,0,0,1,1.17.5,5.36,5.36,0,0,1,1,.73,7.5,7.5,0,0,1,1.45,1.81,14,14,0,0,1,1.55,4,29.74,29.74,0,0,1,.66,4.16,58,58,0,0,1,.18,8.33c-.13,2.77-.36,5.54-.75,8.3a52.11,52.11,0,0,1-4.74,16.1,29.07,29.07,0,0,1-4.83,7.19,15.1,15.1,0,0,1-1.75,1.58l-1.11.64a7.38,7.38,0,0,1-1.24.47,7,7,0,0,1-5.13-.63,13.64,13.64,0,0,1-3.61-2.92,25.15,25.15,0,0,1-2.63-3.47,50,50,0,0,1-3.91-7.49,80.88,80.88,0,0,1-2.9-7.82c-.43-1.32-.81-2.65-1.17-4l-.52-2-.24-1-.11-.5-.05-.26,0-.12A.86.86,0,0,1,506.31,295.6Zm.28.11s0,0,.05,0l.05.12.1.24.2.48.4.95.81,1.89,1.68,3.76c1.14,2.49,2.32,4.95,3.6,7.34a60,60,0,0,0,4.18,6.88c1.54,2.1,3.29,4.19,5.29,5.17a3.82,3.82,0,0,0,2.84.4,3.74,3.74,0,0,0,.68-.25l.68-.39a12.23,12.23,0,0,0,1.33-1.15,27.22,27.22,0,0,0,4.56-6.31,56.16,56.16,0,0,0,3.27-7.33,73.45,73.45,0,0,0,2.38-7.77,45,45,0,0,0,1.22-16.2,16.34,16.34,0,0,0-2.62-7.41,4.53,4.53,0,0,0-2.74-1.9,6.41,6.41,0,0,0-3.36.59,30.93,30.93,0,0,0-6.55,4.23c-2.08,1.69-4.09,3.52-6.06,5.4s-3.91,3.82-5.87,5.74c-1,1-2,1.93-3,2.89-.5.48-1,.95-1.53,1.41-.26.24-.53.46-.81.68A2.75,2.75,0,0,1,506.59,295.71Z" transform="translate(-423.67 -271.59)"/><path class="cls-1" d="M516.86,301.91s8.57-18.37,12.86-14.08-3.07,21.43-3.07,21.43Z" transform="translate(-423.67 -271.59)"/><path d="M516.71,302a1.05,1.05,0,0,1,0-.28l0-.17.08-.34.17-.67c.12-.44.27-.87.41-1.31.3-.87.62-1.73,1-2.56a31.6,31.6,0,0,1,2.63-4.85,14.21,14.21,0,0,1,3.95-4.09,5.85,5.85,0,0,1,2.92-1.11,2.77,2.77,0,0,1,1.64.48,4.33,4.33,0,0,1,1,1.18,7.73,7.73,0,0,1,.89,2.74,22.22,22.22,0,0,1,.25,2.81,27.81,27.81,0,0,1-.4,5.56,45.73,45.73,0,0,1-3.26,10.53l-.86,1.85-1.5-1.22A80.65,80.65,0,0,1,516.71,302Zm.29-.08A116.21,116.21,0,0,1,527.59,308l-2.36.63c1.17-3.28,2.56-6.57,3.59-9.92a50,50,0,0,0,1.44-5.05,7.16,7.16,0,0,0-.44-5,2.29,2.29,0,0,0-.8-.78,1.29,1.29,0,0,0-.94-.1,4.07,4.07,0,0,0-1.79,1.34c-1.07,1.26-2,2.73-3,4.12l-3,4.33c-.51.74-1,1.46-1.57,2.19l-.82,1.09-.42.54-.22.26-.11.14S517,302,517,301.87Z" transform="translate(-423.67 -271.59)"/><path class="cls-1" d="M489.26,446.94s80,5.22,47.6-84.53a62.76,62.76,0,0,1-3.1-12.66c-1.09-7.8-3.24-21.59-6.75-37.49-5.44-24.69-66.76-24.05-76.6,0C430.81,360.18,425,372.88,425,393.21,425,404.27,429.72,440.77,489.26,446.94Z" transform="translate(-423.67 -271.59)"/><path d="M489.27,446.79A70.46,70.46,0,0,0,503,446a65.31,65.31,0,0,0,13.27-3.4,47.81,47.81,0,0,0,12-6.54,37.14,37.14,0,0,0,9.22-10,42.82,42.82,0,0,0,5.24-12.52c.23-1.11.41-2.24.62-3.35.1-.56.22-1.12.29-1.68l.15-1.7c.09-1.14.21-2.27.29-3.4V400a98.35,98.35,0,0,0-4.51-26.88c-.57-2.21-1.35-4.36-2.08-6.52l-1.09-3.24c-.37-1.08-.78-2.19-1.12-3.29a63.57,63.57,0,0,1-1.72-6.75c-.46-2.29-.73-4.58-1.08-6.83q-2.07-13.59-4.88-27l-1.45-6.71a16.24,16.24,0,0,0-2.64-5.85,12.31,12.31,0,0,0-1-1.26,10.37,10.37,0,0,0-1.12-1.18l-1.21-1.1-1.33-1a10.57,10.57,0,0,0-1.37-.92l-1.42-.85c-1-.47-2-1-3-1.43-8.27-3.43-17.51-4.38-26.49-3.83a67,67,0,0,0-13.3,2.17,44.91,44.91,0,0,0-12.28,5.18c-3.69,2.35-7,5.42-8.76,9.3-.48.9-.88,2-1.32,3.09l-1.29,3.19L447,324.63c-3.45,8.5-6.91,17-10.21,25.52s-6.51,17.1-8.46,25.91a76.12,76.12,0,0,0-1.83,13.37,63,63,0,0,0,0,6.73,48,48,0,0,0,.89,6.63,46.76,46.76,0,0,0,12.41,23.48c6.3,6.51,14.33,11.22,22.85,14.46A110.27,110.27,0,0,0,489.27,446.79Zm0,.3a133.36,133.36,0,0,1-13.63-2,94.39,94.39,0,0,1-13.3-3.62c-8.68-3-17-7.5-23.73-14a48.38,48.38,0,0,1-14.78-31.07,68.67,68.67,0,0,1-.1-7,78.16,78.16,0,0,1,1.64-13.89c2-9.13,5.21-17.81,8.48-26.4s6.88-17,10.37-25.52l2.64-6.36,1.32-3.17c.46-1.07.82-2.09,1.41-3.22a21.77,21.77,0,0,1,4.24-5.95,27.75,27.75,0,0,1,2.72-2.38,28.16,28.16,0,0,1,3-2,47.11,47.11,0,0,1,13-5.36,69.67,69.67,0,0,1,13.82-2.11,71.6,71.6,0,0,1,14,.56,53.85,53.85,0,0,1,13.53,3.67c1.1.42,2.12,1,3.18,1.55l1.52.93a12,12,0,0,1,1.48,1l1.43,1.08,1.32,1.22a10.35,10.35,0,0,1,1.24,1.32,15.5,15.5,0,0,1,1.13,1.41,18.45,18.45,0,0,1,2.93,6.63l1.4,6.75q2.71,13.51,4.67,27.16c.34,2.29.59,4.56,1,6.77a62.1,62.1,0,0,0,1.62,6.59c.32,1.09.71,2.13,1.07,3.23l1.08,3.29c.71,2.19,1.49,4.36,2,6.6A99.23,99.23,0,0,1,545.08,400l-.05,3.47c-.1,1.15-.23,2.3-.35,3.45l-.18,1.73c-.08.57-.21,1.13-.32,1.7-.23,1.13-.44,2.27-.69,3.4A43.61,43.61,0,0,1,538,426.37a38.07,38.07,0,0,1-9.47,10,50,50,0,0,1-12.16,6.45A65.51,65.51,0,0,1,503,446.25,71.73,71.73,0,0,1,489.25,447.09Z" transform="translate(-423.67 -271.59)"/><path class="cls-1" d="M473.76,395.11s29-3.28,22.1,7.77-17.32,16.72-32.84,3C463,405.86,458.24,395.11,473.76,395.11Z" transform="translate(-423.67 -271.59)"/><path d="M473.76,395c2.81-.26,5.63-.65,8.49-1a29.64,29.64,0,0,1,8.72,0,12.94,12.94,0,0,1,4.38,1.55,6,6,0,0,1,1.91,1.81,4.18,4.18,0,0,1,.6,2.71,6.18,6.18,0,0,1-.31,1.25,10.65,10.65,0,0,1-.53,1.07c-.21.32-.41.66-.63,1l-.66.86c-.44.57-.85,1.16-1.33,1.7s-.88,1.14-1.39,1.65a25.76,25.76,0,0,1-6.62,5.64,14.77,14.77,0,0,1-8.77,1.87,17.17,17.17,0,0,1-2.26-.37l-2.19-.61a27.8,27.8,0,0,1-4.07-1.87,28.85,28.85,0,0,1-3.73-2.39,16.37,16.37,0,0,1-1.71-1.38L462,407l-.28-.24-.1-.28a9.12,9.12,0,0,1-.64-2.7,12.27,12.27,0,0,1-.05-1.36,8.06,8.06,0,0,1,.2-1.38,6.81,6.81,0,0,1,3.15-4.38A11.82,11.82,0,0,1,469,395.2c.8-.05,1.59-.18,2.38-.18Zm0,.3-2.34.16c-.77.09-1.52.31-2.28.46a8.73,8.73,0,0,0-1.08.39,6.3,6.3,0,0,0-1,.45l-.94.58a5.54,5.54,0,0,0-.82.69,5.16,5.16,0,0,0-1.57,3.46,9,9,0,0,0,.71,3.79l-.39-.53c1.09.85,2.16,1.72,3.25,2.53s2.2,1.6,3.37,2.26a29.35,29.35,0,0,0,3.55,1.87l1.86.65a5.29,5.29,0,0,0,.95.24l1,.21a14.37,14.37,0,0,0,7.77-.65,16.43,16.43,0,0,0,6.57-4.87,16,16,0,0,0,1.27-1.67,17,17,0,0,0,1.11-1.77l.51-.91c.16-.31.28-.6.41-.9a7.62,7.62,0,0,0,.26-.9,4.84,4.84,0,0,0,.06-.83,2.27,2.27,0,0,0-.53-1.3,4.85,4.85,0,0,0-1.3-.92,15.75,15.75,0,0,0-3.65-1.13C485.19,395.68,479.41,394.63,473.77,395.26Z" transform="translate(-423.67 -271.59)"/><path class="cls-2" d="M430.19,363.57c5.94,5.52,42.64,24.17,49.26.1s6.62-39.1,5.41-54.14-8.95-14-8.95-14-24.43,2.28-30.6,29.21Z" transform="translate(-423.67 -271.59)"/><path class="cls-1" d="M455.57,353.52c-.18-3.73.86-9.68,6-8.82,4.61.78,6.35,6.07,7.61,9.88.61,1.82,3.5,1,2.89-.8-1.8-5.42-5-12.6-11.88-12.15-6,.38-7.83,6.86-7.59,11.89.09,1.92,3.09,1.94,3,0Z" transform="translate(-423.67 -271.59)"/><path d="M501.89,353.52c-.17-3.73.87-9.68,6-8.82,4.62.78,6.35,6.07,7.62,9.88.6,1.82,3.5,1,2.89-.8-1.8-5.42-5-12.6-11.89-12.15-6,.38-7.82,6.86-7.59,11.89.1,1.92,3.1,1.94,3,0Z" transform="translate(-423.67 -271.59)"/><path d="M517.8,428.19a39.73,39.73,0,0,0,12.38-26.65c.13-1.92-2.87-1.92-3,0a36.58,36.58,0,0,1-11.5,24.53c-1.4,1.34.72,3.45,2.12,2.12Z" transform="translate(-423.67 -271.59)"/></svg>