<svg id="Layer_1" data-name="Layer 1" xmlns="http://www.w3.org/2000/svg" viewBox="0 0 1080 1080"><defs><style>.cls-1,.cls-2{fill:#fff;}.cls-2,.cls-3{stroke:#000;stroke-miterlimit:10;}</style></defs><title>Artboard 1</title><path class="cls-1" d="M409.47,675.51s-44.36,1.73-35.16-81c0,0,17.59,68.08,51.71,50.14C426,644.62,420.12,666.11,409.47,675.51Z"/><path d="M409.47,675.51a28.37,28.37,0,0,1-12.05-2.64,36,36,0,0,1-5.43-3.1,37,37,0,0,1-4.77-4.07,42.27,42.27,0,0,1-7.33-10.17,57.29,57.29,0,0,1-4.61-11.66,99.38,99.38,0,0,1-3.52-24.69,182.47,182.47,0,0,1,1.08-24.86l.82-7.82,2.07,7.61c.89,3.24,2,6.51,3.09,9.71s2.36,6.39,3.71,9.52a103.46,103.46,0,0,0,9.65,17.86,51.4,51.4,0,0,0,6.46,7.69,30.63,30.63,0,0,0,8,5.74,19.28,19.28,0,0,0,9.48,1.86,26,26,0,0,0,9.47-2.66l1.86-.89-.59,1.91c-.88,2.88-1.9,5.65-3,8.41s-2.37,5.45-3.77,8.08a68.49,68.49,0,0,1-4.63,7.6A37.29,37.29,0,0,1,409.47,675.51Zm0,0a39.52,39.52,0,0,0,5.5-6.89,64.85,64.85,0,0,0,4.2-7.73c1.25-2.66,2.33-5.39,3.32-8.15s1.92-5.56,2.67-8.36l1.27,1a27,27,0,0,1-10.16,3.2,21.35,21.35,0,0,1-10.6-1.8,31.27,31.27,0,0,1-8.83-6,54.05,54.05,0,0,1-6.92-8,99.87,99.87,0,0,1-10.1-18.29,141.92,141.92,0,0,1-6.94-19.66l2.89-.21a204.48,204.48,0,0,0-1.29,24.47c0,1,0,2,.07,3.06l.17,3.05c.07,2,.33,4.06.53,6.08.08,1,.24,2,.4,3l.45,3,.61,3,.31,1.49.39,1.47c2,7.83,5.36,15.44,10.78,21.49A31.51,31.51,0,0,0,409.47,675.51Z"/><path class="cls-1" d="M644,637.39s19.16,13,19.16,72.8c0,0,.87,30.37,24.85,39.87a52,52,0,0,1,15.33,9.66c12,10.66,22.17,25.8-22.55,21.74,0,0-5.37,22.22-39.08,11.49,0,0-32-14.53-36.71-52.47,0,0-77.47,83.89-140.31-.4,0,0,0,73.56-36,69.73,0,0-46-4.6-32.18-21.45,0,0-71.84,20.24-46.44-12.15,4.29-5.48,27.14-13.54,38.36-19a27.09,27.09,0,0,0,15.18-24.86c-.44-27.36,2.86-76.56,27-91.12C460.22,623.33,644,637.39,644,637.39Z"/><path d="M644,637.39a20.54,20.54,0,0,1,4.58,4.3c.66.82,1.24,1.69,1.87,2.54s1.1,1.79,1.66,2.68,1,1.86,1.49,2.78l.72,1.4.64,1.45,1.27,2.88,1.09,3c.76,2,1.31,4,1.9,6s1,4.07,1.46,6.12c.22,1,.46,2,.66,3.07l.47,3.11c.27,2.07.66,4.13.77,6.22l.47,6.25c.12,2.08.12,4.17.2,6.25.2,4.17,0,8.33,0,12.49,0,1,0,2.08,0,3.11s.17,2.07.29,3.1a32.28,32.28,0,0,0,1.35,6.07,95.21,95.21,0,0,0,4.92,11.3,39.51,39.51,0,0,0,7,9.87,31.63,31.63,0,0,0,4.59,3.91,32.28,32.28,0,0,0,5.22,3c1.79.8,3.85,1.57,5.73,2.54a51.22,51.22,0,0,1,5.5,3.21,60.55,60.55,0,0,1,9.7,8.15,43.34,43.34,0,0,1,4.14,4.88,15.67,15.67,0,0,1,2.84,6,6.91,6.91,0,0,1-.3,3.64,6.55,6.55,0,0,1-2.24,2.87,15.53,15.53,0,0,1-6.13,2.53,39,39,0,0,1-6.32.81c-1.06.08-2.11.12-3.16.12s-2.1,0-3.15,0c-4.19-.06-8.35-.39-12.5-.82h0l.8-.57A18.32,18.32,0,0,1,679,787a20.17,20.17,0,0,1-4,4.36,23.4,23.4,0,0,1-10.64,4.79,38.07,38.07,0,0,1-11.62.17,66.2,66.2,0,0,1-11.25-2.56h-.06l0,0a56.33,56.33,0,0,1-7.29-4.31,72.45,72.45,0,0,1-18-17.62,68.45,68.45,0,0,1-8-14.83,72.18,72.18,0,0,1-4.07-16.36h0l1.71.55c-2.29,2.64-4.72,5.06-7.23,7.45s-5.11,4.65-7.8,6.83a131.69,131.69,0,0,1-17.06,11.9c-12,7-25.43,12.22-39.73,13.51a68.18,68.18,0,0,1-31.85-4.55,75.38,75.38,0,0,1-9.72-4.76,90.41,90.41,0,0,1-8.9-6,103.87,103.87,0,0,1-8-7.08,51.83,51.83,0,0,1-6.85-8.09,47.68,47.68,0,0,1-2.72-4.56,34.65,34.65,0,0,1-2.07-5l0,0,2.07-.68a165.39,165.39,0,0,1-3.75,33.49,97.81,97.81,0,0,1-5,16.19c-2.25,5.19-5.09,10.3-9.28,14.36l-1.6,1.48c-.57.45-1.18.87-1.76,1.3-.3.21-.58.45-.9.63l-1,.53a15,15,0,0,1-2,1l-2.06.8a21.44,21.44,0,0,1-2.13.55l-1.07.25a10.09,10.09,0,0,1-1.09.12l-2.18.19c-.73,0-1.45-.06-2.18-.09a21.52,21.52,0,0,1-2.15-.16c-1.4-.18-2.79-.38-4.18-.6q-4.17-.66-8.29-1.61c-5.46-1.3-11-2.84-15.95-5.74a18,18,0,0,1-3.52-2.61,9.11,9.11,0,0,1-2.47-3.85,7.25,7.25,0,0,1-.33-2.36l.15-1.18a8.59,8.59,0,0,1,.32-1.13,10.9,10.9,0,0,1,.93-2.09c.37-.65.83-1.24,1.24-1.86v0l1.12,1.7a181.93,181.93,0,0,1-28,5.79,68.39,68.39,0,0,1-14.46.34,22.19,22.19,0,0,1-3.66-.67,12.72,12.72,0,0,1-3.55-1.49,6.87,6.87,0,0,1-2.71-3,7,7,0,0,1-.4-4,13.44,13.44,0,0,1,1.2-3.54,28.7,28.7,0,0,1,1.8-3.16c.65-1,1.34-2,2.06-3a9.62,9.62,0,0,1,1.17-1.41,9.5,9.5,0,0,1,1.39-1.24,47.46,47.46,0,0,1,6.11-3.81q3.16-1.69,6.37-3.26c4.28-2.1,8.63-4,12.91-6.08,2.14-1,4.25-2.11,6.35-3.19,1-.55,2.09-1.08,3.11-1.65s2-1.1,2.93-1.67a26.83,26.83,0,0,0,9.08-9.35A25.52,25.52,0,0,0,401,739a26.52,26.52,0,0,0,1-6.58,274.49,274.49,0,0,1,2-28.53,198.77,198.77,0,0,1,5.16-28,95.73,95.73,0,0,1,4.63-13.48c1-2.16,1.6-4.51,2.9-6.54.55-1.06,1.23-2.05,1.85-3.07s1.35-2,2.07-2.94a35,35,0,0,1,10.73-9.49c4.32-2.2,9-3.27,13.67-4.22a230.82,230.82,0,0,1,28.33-3.2c19-1.13,38-1.19,56.95-.93C568.26,632.56,606.19,634.55,644,637.39Zm0,0q-28.39-2-56.85-3.19c-19-.83-37.93-1.46-56.91-1.68s-38-.08-56.89,1.11a231.76,231.76,0,0,0-28.22,3.28c-4.61,1-9.27,2.05-13.42,4.18a33.84,33.84,0,0,0-10.41,9.28c-.7.94-1.37,1.9-2,2.88s-1.28,2-1.82,3-1.12,2.07-1.74,3.08c-.29.51-.62,1-.89,1.53s-.52,1.07-.75,1.61A95.34,95.34,0,0,0,409.59,676a152,152,0,0,0-4.27,28,258,258,0,0,0-.08,28.36A28.2,28.2,0,0,1,401.93,747a26.94,26.94,0,0,1-10.49,10.86,54.11,54.11,0,0,1-6.75,2.91L378,763.2q-6.69,2.47-13.23,5.22c-2.18.92-4.36,1.85-6.46,2.91a37.39,37.39,0,0,0-6,3.57A8.16,8.16,0,0,0,351,776a9.11,9.11,0,0,0-1.11,1.32,31.52,31.52,0,0,0-2,2.89,15.33,15.33,0,0,0-2.41,6.35,4.73,4.73,0,0,0,2.7,5,17.52,17.52,0,0,0,6.4,1.66,65.91,65.91,0,0,0,13.94-.48,224.7,224.7,0,0,0,27.74-5.44l2.94-.74L397.35,789v0c-.38.52-.82,1-1.17,1.55a9.2,9.2,0,0,0-.86,1.68,5.28,5.28,0,0,0-.23,3.54,6.83,6.83,0,0,0,2,3.13,16.32,16.32,0,0,0,3.17,2.38c4.71,2.68,10.14,4.16,15.51,5.36q4.06.88,8.18,1.49,2.05.3,4.11.54a20.08,20.08,0,0,0,2,.12c.67,0,1.34.06,2,.06l2-.2c.33,0,.67-.05,1-.12l1-.24a18.13,18.13,0,0,0,1.92-.52l1.84-.74a15.55,15.55,0,0,0,1.75-.94l.86-.49a9.19,9.19,0,0,0,.81-.58c.53-.41,1.07-.79,1.59-1.21l1.45-1.38a33.23,33.23,0,0,0,4.94-6.39,55.36,55.36,0,0,0,3.74-7.27,96.32,96.32,0,0,0,4.88-15.77,153.52,153.52,0,0,0,2.68-16.4c.61-5.5,1-11.07,1.13-16.57l.05-3.06,2,2.37v0a41.88,41.88,0,0,1,4.21,3.14c1.36,1.06,2.61,2.19,3.87,3.3,2.53,2.2,4.87,4.52,7.29,6.75a91.14,91.14,0,0,0,15.55,11.82A70.66,70.66,0,0,0,514.29,772a64.66,64.66,0,0,0,19.23,2.17c13.07-.51,26-4.72,37.9-10.93a146.57,146.57,0,0,0,17.2-10.59,149.87,149.87,0,0,0,15.7-12.83l1.49-1.42.21,2h0a69.55,69.55,0,0,0,3.89,15.91,66.69,66.69,0,0,0,7.7,14.46,70.62,70.62,0,0,0,11,12.19,68.75,68.75,0,0,0,6.48,5.06,54.64,54.64,0,0,0,7,4.19l-.1,0a65,65,0,0,0,11,2.54,36.54,36.54,0,0,0,11.1-.1,21.88,21.88,0,0,0,10-4.42,18.85,18.85,0,0,0,3.7-4,17.11,17.11,0,0,0,2.37-4.86l.18-.62.62.05h0c4.13.29,8.26.5,12.38.5a55.63,55.63,0,0,0,12.15-1.12,13.87,13.87,0,0,0,5.29-2.19,4.25,4.25,0,0,0,1.72-4.46,13.77,13.77,0,0,0-2.51-5.13,40.51,40.51,0,0,0-3.95-4.58,64.8,64.8,0,0,0-9.36-7.85,49.38,49.38,0,0,0-5.24-3.1c-1.81-.95-3.65-1.64-5.65-2.54a35.15,35.15,0,0,1-10.39-7.43,41.2,41.2,0,0,1-7.29-10.44,38.86,38.86,0,0,1-3.53-12.1,93.81,93.81,0,0,1-1.5-12.38c-.25-4.15-.37-8.3-.85-12.42-.21-2.06-.38-4.13-.65-6.18l-.89-6.14c-.25-2-.69-4.07-1-6.11l-.51-3-.63-3c-.43-2-.83-4-1.38-6s-1-4-1.65-5.94l-.91-2.95-1.08-2.88-.54-1.45-.63-1.4c-.43-.93-.81-1.89-1.29-2.8l-1.46-2.71c-.54-.87-1-1.77-1.62-2.62A29.74,29.74,0,0,0,644,637.39Z"/><path class="cls-2" d="M600.36,647.36S536,793,470.09,638.16l-.11,2.15"/><path class="cls-1" d="M470,640.31,464,757.7s2.3,55.94-39.84,52.11c0,0-40.62-8.43-26.82-20.69,1.62-1.44,36-17.62,32.95-62.07,0,0-14.56-233.72,25.28-219.93C457,489.51,511,508,535,509c12.32.51,83-19,95,3,0,0,10.21,6.62,13.28,129.23,0,0-1.78,96.27,3.06,110.34,1.12,3.24,33,24.37,33.72,30.66.77,6.89-15.33,32.18-53.64,1.53,0,0-33.72-13.8-26.06-136.4"/><path d="M470,640.31c0,9.81-.2,19.61-.44,29.41l-.39,14.69-.54,14.68-1.38,29.36c-.1,9.8-.88,19.57-1.42,29.35v-.17a85.29,85.29,0,0,1-.45,9.64,86.87,86.87,0,0,1-1.48,9.48,59.7,59.7,0,0,1-6.73,18,37.62,37.62,0,0,1-6,7.69,30.38,30.38,0,0,1-8.06,5.61,31.66,31.66,0,0,1-9.38,2.73,42.19,42.19,0,0,1-9.66.09h-.13c-3.58-.82-7.07-1.79-10.55-2.91a77.12,77.12,0,0,1-10.2-4,34.1,34.1,0,0,1-4.8-2.8,13.12,13.12,0,0,1-4-4.17,6.06,6.06,0,0,1-.72-3,6.28,6.28,0,0,1,1-2.91,11.27,11.27,0,0,1,1.88-2.22,3.8,3.8,0,0,1,.61-.5l.61-.38,1.16-.69a65.87,65.87,0,0,0,16.4-13.71,60.51,60.51,0,0,0,10.83-18.41,64.89,64.89,0,0,0,3.82-21.06l0-2.7c0-.89-.08-1.79-.11-2.69-.07-1.79-.21-3.6-.3-5.4L429,712.49q-1.05-21.65-1.57-43.33c-.35-14.45-.44-28.91-.4-43.36s.38-28.92,1.18-43.38c.4-7.22.93-14.44,1.65-21.65s1.59-14.42,2.87-21.58A106.13,106.13,0,0,1,438.37,518a30,30,0,0,1,6-9.73,12.11,12.11,0,0,1,5.38-3.21,10.85,10.85,0,0,1,3.26-.31,12.51,12.51,0,0,1,3.12.62L453.66,507h0a8.89,8.89,0,0,1,1-3.46,8.47,8.47,0,0,1,2.37-2.76,14.62,14.62,0,0,1,6-2.51,47.21,47.21,0,0,1,11.88-.48,186.79,186.79,0,0,1,22.8,3.26c7.49,1.42,14.93,3,22.37,4.33,3.72.66,7.44,1.26,11.15,1.68a33.9,33.9,0,0,0,5.43.29c1.8-.11,3.67-.36,5.53-.62,7.46-1.1,15-2.46,22.51-3.59s15.12-2.14,22.76-2.72a118.91,118.91,0,0,1,23.1.13A44.35,44.35,0,0,1,622,503.36a22.13,22.13,0,0,1,5.3,3.08,16,16,0,0,1,4.09,4.79l-.53-.58h0a3.11,3.11,0,0,1,.61.58l.29.39a7.85,7.85,0,0,1,.42.72,12.28,12.28,0,0,1,.66,1.38,28.23,28.23,0,0,1,1,2.73c.58,1.81,1,3.62,1.48,5.44.85,3.64,1.5,7.29,2.07,10.94,1.15,7.31,2,14.64,2.69,22,1.4,14.67,2.28,29.36,3,44.06.34,7.34.61,14.69.85,22s.49,14.7.51,22.1q-.42,22-.43,44.07c0,14.68.14,29.38.84,44,.18,3.66.41,7.32.75,11,.18,1.81.39,3.63.67,5.42.14.89.3,1.77.51,2.63.1.42.24.89.35,1.21a1.55,1.55,0,0,0,.25.37c.13.16.27.31.42.47,1.22,1.24,2.66,2.41,4.06,3.57l4.3,3.43,8.66,6.82c2.88,2.3,5.73,4.63,8.49,7.09,1.38,1.24,2.73,2.5,4,3.86a27.21,27.21,0,0,1,1.84,2.14,8.35,8.35,0,0,1,1.46,2.61,6.47,6.47,0,0,1-.17,3.06,13.76,13.76,0,0,1-1,2.69,19.68,19.68,0,0,1-3.22,4.68,21.26,21.26,0,0,1-9.48,6,26.13,26.13,0,0,1-11.15.79,41.64,41.64,0,0,1-10.7-3.06,81.36,81.36,0,0,1-18.74-11.72h0l.11.06a18.28,18.28,0,0,1-3.69-2.75,35.57,35.57,0,0,1-3.11-3.27,55,55,0,0,1-5.18-7.39,96.35,96.35,0,0,1-7.38-16.45,149.82,149.82,0,0,1-4.79-17.4c-1.3-5.88-2.22-11.83-2.93-17.8-.34-3-.66-6-.86-9l-.34-4.49-.18-4.5q-.42-9-.2-18a305.78,305.78,0,0,1,2.76-35.79c.24,12,.22,23.88.56,35.78.06,3,.14,5.94.3,8.91s.2,5.94.39,8.9c.31,5.93.77,11.84,1.32,17.74s1.24,11.79,2.21,17.63a157.65,157.65,0,0,0,3.67,17.37,86.47,86.47,0,0,0,6.36,16.56A48.57,48.57,0,0,0,620,777.7a25,25,0,0,0,3,3.23,13.94,13.94,0,0,0,3.57,2.43l0,0,0,0h0a81.23,81.23,0,0,0,18.6,11.45,40.33,40.33,0,0,0,10.45,2.91A24.9,24.9,0,0,0,666.4,797a20.05,20.05,0,0,0,8.92-5.69,18.15,18.15,0,0,0,3-4.4,13,13,0,0,0,.9-2.46,5.27,5.27,0,0,0,.15-2.4,7.1,7.1,0,0,0-1.24-2.15c-.54-.69-1.14-1.36-1.77-2-1.25-1.3-2.59-2.53-4-3.74-2.74-2.42-5.6-4.71-8.47-7l-8.71-6.75L650.86,757a51.55,51.55,0,0,1-4.23-3.68c-.17-.17-.34-.35-.51-.55a3.64,3.64,0,0,1-.5-.78c-.19-.54-.31-1-.43-1.43-.23-.93-.41-1.85-.56-2.77-.3-1.84-.52-3.68-.71-5.52-.38-3.67-.63-7.35-.84-11-.8-14.7-1-29.41-1.14-44.11s-.05-29.41.13-44.12c-.07-7.28-.4-14.63-.65-22s-.61-14.67-1-22c-.78-14.66-1.76-29.32-3.25-43.9-.76-7.29-1.63-14.56-2.81-21.77-.59-3.6-1.25-7.19-2.1-10.7-.42-1.76-.89-3.5-1.43-5.19-.28-.83-.57-1.67-.92-2.44a10.2,10.2,0,0,0-.53-1.1,4,4,0,0,0-.28-.46l-.12-.16s-.16-.14.13.08h0l-.53-.58a15.36,15.36,0,0,0-7.82-6.43,41.22,41.22,0,0,0-10.61-2.61,116.09,116.09,0,0,0-22.45-.1c-7.52.59-15,1.58-22.52,2.73s-15,2.49-22.53,3.61c-1.91.27-3.81.53-5.81.66a44.38,44.38,0,0,1-6-.22c-3.86-.35-7.65-.92-11.43-1.55-7.54-1.26-15-2.76-22.46-4.1q-5.6-1-11.18-1.84c-3.73-.56-7.46-1-11.17-1.26a43.37,43.37,0,0,0-10.85.4,11.24,11.24,0,0,0-4.46,1.75,4.65,4.65,0,0,0-1.94,3.47h0l-.4,2.33-2.09-.71a10.06,10.06,0,0,0-2.16-.5,7.5,7.5,0,0,0-2.12.14,8.6,8.6,0,0,0-3.86,2.2,26,26,0,0,0-5.48,8.49,103.55,103.55,0,0,0-5.94,20.46c-2.8,14.09-4.19,28.48-5.19,42.86-1.93,28.79-2.14,57.71-1.57,86.58q.42,21.66,1.4,43.31l.53,10.82c.09,1.81.22,3.6.28,5.42,0,.9.09,1.81.1,2.72l0,2.73a68.21,68.21,0,0,1-3.79,21.4,61.76,61.76,0,0,1-10.91,18.83,70.37,70.37,0,0,1-16.57,14.15c-3,1.46-5.58,4.93-3.81,7.72a11.32,11.32,0,0,0,3.53,3.53,32.56,32.56,0,0,0,4.59,2.57,77.12,77.12,0,0,0,10,3.74c3.42,1,6.91,1.94,10.39,2.65l-.12,0c6.09.48,12.32-.25,17.68-3a27.45,27.45,0,0,0,7.22-5.25,34.69,34.69,0,0,0,5.39-7.21,56.7,56.7,0,0,0,6.06-17.19,85.47,85.47,0,0,0,1.55-18.29v-.17c.46-9.79.68-19.58,1.59-29.34l1.63-29.35,1-14.66,1.11-14.65C468.18,659.84,469,650.07,470,640.31Z"/><path d="M403,663.33A27.27,27.27,0,0,1,388,647.94c-.18-.45-.9-.25-.73.2a28.16,28.16,0,0,0,15.6,15.92c.44.18.64-.54.2-.73Z"/><polygon class="cls-1" points="469.33 635.86 473.93 669.58 516.84 712.49 573.54 709.43 598.83 659.62 601.9 639.69 469.33 635.86 469.33 635.86"/><path d="M592.68,579q-3.76,6.79-7.53,13.6c-1.65,3-3.91,5.9-7.33,3.23-2.22-1.73-3-5.25-3.31-7.91-.15-1.39-.39-3.59.11-4.86l.27-1.26,4.31-1c1.49.48,4.21,5.14,5.19,6.34l10.39,12.68c.61.75,1.67-.32,1.06-1.06l-9.35-11.41c-2.27-2.77-5-7.94-8.33-9.42-5.32-2.34-5.51,7.22-5.16,10.25.46,3.91,3.18,12,8.66,10.53,2.67-.71,4-3.93,5.16-6.08L594,579.71c.47-.85-.82-1.61-1.29-.76Z"/><path class="cls-1" d="M484.77,360.28S466,348.4,465,330.58,499.62,291,499.62,291s7.92-8.91,15.84,26.72C515.46,317.71,496.65,361.27,484.77,360.28Z"/><path d="M484.73,360.42a40.48,40.48,0,0,1-4.84-3.19,46,46,0,0,1-4.41-3.73,42.69,42.69,0,0,1-7.34-9A31.56,31.56,0,0,1,464,333.42c-.12-1-.28-2-.33-3v-1.57c.05-.51.13-1,.19-1.54a21.87,21.87,0,0,1,1.93-5.73,43.31,43.31,0,0,1,6.89-9.43c2.64-2.81,5.48-5.38,8.36-7.9s5.86-4.9,8.88-7.24,6.06-4.63,9.27-6.78l-.2.16a4,4,0,0,1,1.12-.86,3.94,3.94,0,0,1,1.3-.45,4.58,4.58,0,0,1,2.68.39,10,10,0,0,1,3.64,3.16,35.4,35.4,0,0,1,4.24,7.91A122.88,122.88,0,0,1,517,317.37l.12.49-.21.49c-1.83,4.17-3.76,8.25-5.87,12.26s-4.34,8-6.76,11.81c-1.21,1.92-2.48,3.8-3.81,5.66s-2.76,3.62-4.27,5.34a31.58,31.58,0,0,1-5,4.72C489.36,359.49,487.16,360.69,484.73,360.42Zm.09-.29a9.34,9.34,0,0,0,5.69-2.83,36.4,36.4,0,0,0,4.38-5,106.7,106.7,0,0,0,7.16-11.26c2.2-3.89,4.23-7.87,6.23-11.87s3.92-8.06,5.72-12.13l-.1,1a122.26,122.26,0,0,0-4.48-16.52,34.06,34.06,0,0,0-3.59-7.52,8.48,8.48,0,0,0-2.65-2.68,2.68,2.68,0,0,0-1.52-.37,2.48,2.48,0,0,0-1.39.6l-.17.14,0,0A109.39,109.39,0,0,0,481.66,305a66.45,66.45,0,0,0-7.78,8.23,41.7,41.7,0,0,0-5.87,9.42,21.24,21.24,0,0,0-1.53,5.11l-.15,1.29v1.29c.07.88.2,1.79.29,2.68a31.87,31.87,0,0,0,3.56,10.3,49.13,49.13,0,0,0,6.46,9.07l.94,1.05,1,1c.64.69,1.33,1.33,2,2C481.92,357.72,483.4,359,484.82,360.13Z"/><path class="cls-1" d="M483.1,360S468.58,346.47,465.47,334c0,0,21.29-3.66,25.92-8.3,5.19-5.18,2.08,1,8.3-34.21,0,0,10.37-6.23,16.59,28S483.1,360,483.1,360Z"/><path d="M483.05,360.09l-.25-.19-.19-.16-.38-.32-.75-.65q-.75-.66-1.47-1.35c-1-.91-1.92-1.84-2.84-2.8a72.06,72.06,0,0,1-5.27-6,56.71,56.71,0,0,1-4.49-6.7,34,34,0,0,1-3.19-7.56l-.36-1.32,1.39-.27c5.13-1,10.26-2.16,15.29-3.48a52.14,52.14,0,0,0,7.34-2.42,15.33,15.33,0,0,0,1.67-.84,4.36,4.36,0,0,0,.74-.5A7.51,7.51,0,0,0,491,325a20.57,20.57,0,0,0,2.7-2.61,11.2,11.2,0,0,0,1.06-3.55c.24-1.29.47-2.59.67-3.9l1.18-7.83,2.25-15.69.06-.39.33-.17a6.36,6.36,0,0,1,6.57.75,7.94,7.94,0,0,1,1.27,1l.6.54c.19.19.35.4.52.6l1,1.22.84,1.3a46.11,46.11,0,0,1,4.83,11.12c.61,1.92,1.06,3.86,1.6,5.79l1.27,5.85a37.64,37.64,0,0,1,.45,12.27,29.83,29.83,0,0,1-4.32,11.6,32.86,32.86,0,0,1-8.53,8.78,38.07,38.07,0,0,1-5.18,3.15,48.89,48.89,0,0,1-5.5,2.43A50.27,50.27,0,0,1,489,359c-1,.24-1.94.46-2.91.65-.49.1-1,.17-1.47.25l-.74.1-.37.05A3.16,3.16,0,0,1,483.05,360.09Zm.09-.29s.18-.06.29-.09l.36-.09.71-.2,1.41-.42c.94-.28,1.87-.6,2.79-.93,1.84-.66,3.64-1.43,5.4-2.24a47.27,47.27,0,0,0,9.84-6.07c.76-.58,1.45-1.24,2.16-1.87s1.37-1.32,2-2.05a28.79,28.79,0,0,0,3.36-4.52,28.08,28.08,0,0,0,3.63-10.5,38.13,38.13,0,0,0-.37-11.27l-1.1-5.74c-.47-1.88-.86-3.8-1.4-5.66s-1.08-3.71-1.79-5.49l-.49-1.36c-.19-.44-.4-.86-.59-1.3a20,20,0,0,0-1.28-2.53l-.71-1.21-.83-1.1c-.15-.18-.27-.38-.42-.55l-.47-.48a5.85,5.85,0,0,0-1-.89,4.8,4.8,0,0,0-1.07-.7l-.57-.28-.59-.16a1.8,1.8,0,0,0-.6-.1,2.41,2.41,0,0,0-.6,0,3.31,3.31,0,0,0-1.09.24l.39-.57c-1.06,5.17-2.13,10.34-2.95,15.55-.43,2.6-.8,5.21-1.15,7.82l-.52,3.94c-.09.66-.2,1.32-.33,2a7.66,7.66,0,0,1-.65,2.06,7.37,7.37,0,0,1-1.36,1.71c-.47.47-.93.93-1.37,1.4-.2.23-.52.48-.78.72a5.88,5.88,0,0,1-.86.67,16.68,16.68,0,0,1-1.79,1.08,49.71,49.71,0,0,1-7.49,3.06,112.59,112.59,0,0,1-15.56,3.64l1-1.59a36,36,0,0,0,2.73,7.1,66.66,66.66,0,0,0,4,6.67c1.45,2.18,3.05,4.25,4.65,6.33.81,1,1.65,2.05,2.51,3.05Z"/><path d="M496,355.9a13.15,13.15,0,0,1-2.84-2.54,13.59,13.59,0,0,1-2.05-3.05c-.49-1.14-.75-2.43-1.33-3.51a11.93,11.93,0,0,0-2.26-2.91,21.64,21.64,0,0,1-2.49-2.77,29.53,29.53,0,0,1-2.13-3,23.42,23.42,0,0,1-2.74-7l.26-.16a23.2,23.2,0,0,1,5.18,5.4,27.91,27.91,0,0,1,1.82,3.19,22.2,22.2,0,0,1,1.48,3.42,11.69,11.69,0,0,0,1.7,3.27c.73,1,1.8,1.76,2.62,2.68a13.26,13.26,0,0,1,1.91,3.14,13,13,0,0,1,1.12,3.64Z"/><path d="M513.85,339.08a17.16,17.16,0,0,1-5.25-5.95c-.56-1.2-.88-2.56-1.53-3.7a13.46,13.46,0,0,0-2.44-3.1,24.7,24.7,0,0,1-2.67-2.95,33.73,33.73,0,0,1-2.31-3.17,26.12,26.12,0,0,1-3.12-7.36l.25-.17a26.45,26.45,0,0,1,5.54,5.76,33.8,33.8,0,0,1,2,3.38,25.8,25.8,0,0,1,1.67,3.61,13.16,13.16,0,0,0,1.88,3.46c.8,1.05,1.92,1.87,2.81,2.86a17.34,17.34,0,0,1,3.41,7.16Z"/><path class="cls-1" d="M564,332c4-2,36.44-46.19,49.94-36.15s6.75,63.26-12.15,81.33S564,332,564,332Z"/><path d="M563.76,332a9.15,9.15,0,0,0,.71-.63l.57-.62,1.1-1.31,2.15-2.67c1.44-1.79,2.85-3.59,4.32-5.36,2.91-3.57,5.91-7.06,9.07-10.43a111.93,111.93,0,0,1,10.07-9.63,52.78,52.78,0,0,1,5.67-4.22,30.58,30.58,0,0,1,6.46-3.26,13.09,13.09,0,0,1,7.65-.57,8.5,8.5,0,0,1,3.5,1.95,10.17,10.17,0,0,1,1.32,1.39,12.79,12.79,0,0,1,1.07,1.53,23.19,23.19,0,0,1,2.61,6.67,48,48,0,0,1,1.14,6.9,92.86,92.86,0,0,1,.29,13.85,128.15,128.15,0,0,1-1.36,13.8A88.1,88.1,0,0,1,612,366a48.74,48.74,0,0,1-8,11.84,18.7,18.7,0,0,1-2.84,2.57,12.79,12.79,0,0,1-3.74,1.78,10.43,10.43,0,0,1-4.27.28,12.39,12.39,0,0,1-3.92-1.29,22.53,22.53,0,0,1-5.88-4.76,42.29,42.29,0,0,1-4.36-5.71,87.91,87.91,0,0,1-6.55-12.38c-1.87-4.25-3.51-8.58-5-13-.73-2.18-1.39-4.39-2-6.61l-.92-3.33-.42-1.67-.2-.84-.1-.42-.05-.21A1.29,1.29,0,0,1,563.76,332Zm.37.16s.07,0,.09.06l.07.2.16.4.32.8.64,1.6,1.3,3.18c.88,2.11,1.8,4.21,2.71,6.3,1.86,4.17,3.79,8.3,5.89,12.32a99.64,99.64,0,0,0,6.92,11.57,47.08,47.08,0,0,0,4.14,5.09,18,18,0,0,0,4.84,3.76,7,7,0,0,0,5.11.7,10.73,10.73,0,0,0,4.73-3.16,44.5,44.5,0,0,0,7.65-10.66A92.84,92.84,0,0,0,614.1,352a118.22,118.22,0,0,0,3.85-13c2-8.83,3.1-18.06,1.93-27.08a38.59,38.59,0,0,0-1.43-6.6,19.91,19.91,0,0,0-2.87-5.89,7.9,7.9,0,0,0-4.71-3.35,10.71,10.71,0,0,0-5.82.93A48.74,48.74,0,0,0,594,304c-1.76,1.4-3.46,2.88-5.13,4.41s-3.34,3.07-5,4.65c-3.27,3.16-6.47,6.42-9.7,9.68-1.6,1.64-3.22,3.26-4.86,4.88-.82.81-1.66,1.6-2.51,2.38-.42.4-.86.78-1.31,1.15l-.69.54-.37.25-.19.11Z"/><path class="cls-1" d="M580.67,343.53s14.94-32,22.41-24.55-5.33,37.36-5.33,37.36Z"/><path d="M580.47,343.58a2,2,0,0,1,.09-.42l.08-.29.16-.58.36-1.14c.24-.76.52-1.5.79-2.25.57-1.48,1.17-2.95,1.86-4.38a61.56,61.56,0,0,1,4.65-8.35,26.52,26.52,0,0,1,6.7-7.14,9.78,9.78,0,0,1,1.07-.69,9.07,9.07,0,0,1,1.16-.6,7.15,7.15,0,0,1,2.63-.69,4.6,4.6,0,0,1,2.71.76,7,7,0,0,1,1.73,2,12.84,12.84,0,0,1,1.52,4.7,37.76,37.76,0,0,1,.33,4.85,48.89,48.89,0,0,1-.92,9.6A94.45,94.45,0,0,1,603,348.2a72.38,72.38,0,0,1-3.37,9l-1.11,2.45-2-1.61c-1.49-1.17-2.93-2.39-4.36-3.6s-2.8-2.44-4.17-3.65C585.29,348.31,582.74,345.89,580.47,343.58Zm.39-.09c3.43,2,6.57,3.81,9.57,5.64,1.49.92,3,1.81,4.37,2.75s2.82,1.84,4.19,2.81l-3.15.84c2.13-5.74,4.47-11.52,6.2-17.42a77.34,77.34,0,0,0,2.3-8.92,19.35,19.35,0,0,0,.28-4.55,9.11,9.11,0,0,0-1.2-4.21A4.41,4.41,0,0,0,602,319a2.72,2.72,0,0,0-1.79-.25,7.27,7.27,0,0,0-3.35,2.3,83.69,83.69,0,0,0-5.44,7.17c-1.77,2.5-3.48,5.07-5.21,7.66l-2.62,3.89-1.34,1.94-.69,1-.35.48-.17.24C581,343.45,580.93,343.59,580.86,343.49Z"/><path class="cls-1" d="M542.21,553.78S659.57,561.44,612,429.86a91.91,91.91,0,0,1-4.55-18.55c-1.59-11.44-4.75-31.66-9.89-55-8-36.19-97.87-35.25-112.29,0C456.53,426.59,448,445.22,448,475,448,491.23,454.93,544.74,542.21,553.78Z"/><path d="M542.22,553.64a91.52,91.52,0,0,0,20-1.52,96.65,96.65,0,0,0,19.2-5.53A77.77,77.77,0,0,0,598.78,537a54.92,54.92,0,0,0,13.43-14.31,58,58,0,0,0,4.66-8.69,66.71,66.71,0,0,0,3.16-9.38,83.2,83.2,0,0,0,2.35-19.73c.07-13.34-2.5-26.63-6.12-39.5-.91-3.23-2-6.41-3-9.6l-1.66-4.74c-.55-1.58-1.13-3.19-1.63-4.81a93,93,0,0,1-2.49-9.86c-.66-3.33-1.05-6.69-1.56-10q-3-19.92-7.07-39.66c-.68-3.29-1.4-6.57-2.12-9.85a23.1,23.1,0,0,0-3.94-8.78,27.07,27.07,0,0,0-3.2-3.65,30.48,30.48,0,0,0-3.78-3.11,44.06,44.06,0,0,0-8.62-4.75,74.36,74.36,0,0,0-19.17-5,102.71,102.71,0,0,0-19.91-.65,99.32,99.32,0,0,0-19.63,3.15,67.61,67.61,0,0,0-18.17,7.64c-5.55,3.44-10.42,8.09-13.16,13.87-.66,1.4-1.28,3-1.92,4.58l-1.89,4.67-3.8,9.35c-5.05,12.46-10.13,24.91-15,37.42s-9.55,25.1-12.42,38.09a112,112,0,0,0-2.67,19.72c-.08,3.34-.27,6.66,0,9.94a70,70,0,0,0,19.83,44.42c9.34,9.53,21.2,16.4,33.74,21.07a136.26,136.26,0,0,0,19.32,5.57A199.21,199.21,0,0,0,542.22,553.64Zm0,.29a194.58,194.58,0,0,1-20-3,138.08,138.08,0,0,1-19.45-5.4,110.22,110.22,0,0,1-18.38-8.44,82.87,82.87,0,0,1-16.18-12.22,70.92,70.92,0,0,1-21.32-45.29,99.74,99.74,0,0,1-.13-10.22,115,115,0,0,1,2.43-20.25c2.89-13.31,7.56-26,12.43-38.59s10.06-25,15.18-37.41l3.85-9.32,1.93-4.66c.66-1.57,1.23-3.07,2-4.71C487.69,348,493,343,498.89,339.45a70.44,70.44,0,0,1,18.93-7.82A102.73,102.73,0,0,1,538,328.54a105.68,105.68,0,0,1,20.35.82,76.88,76.88,0,0,1,19.7,5.33,46.8,46.8,0,0,1,9,5,34.09,34.09,0,0,1,4,3.33,28.46,28.46,0,0,1,3.4,3.94,24.8,24.8,0,0,1,4.18,9.52q1.07,4.94,2.06,9.89,4,19.78,6.94,39.78c.5,3.34.88,6.68,1.52,9.94a90.35,90.35,0,0,0,2.4,9.7c.49,1.6,1,3.15,1.6,4.75l1.65,4.78c1,3.21,2.08,6.41,3,9.66,3.77,12.95,6.37,26.33,6.58,39.92a83.38,83.38,0,0,1-2.09,20.26,60.79,60.79,0,0,1-7.9,18.89,57.67,57.67,0,0,1-14,14.95,67,67,0,0,1-18.08,9.51A99.76,99.76,0,0,1,562.38,553,126,126,0,0,1,542.2,553.93Z"/><path class="cls-1" d="M517.5,477.81S560,473,549.89,489.19s-25.39,24.51-48.15,4.37C501.74,493.56,494.74,477.81,517.5,477.81Z"/><path d="M517.49,477.66c4.13-.41,8.27-.87,12.45-1.22a48.9,48.9,0,0,1,12.66.33,19,19,0,0,1,6.25,2.18,8.25,8.25,0,0,1,2.66,2.45,5.81,5.81,0,0,1,.87,3.65,9.7,9.7,0,0,1-.41,1.73,15.26,15.26,0,0,1-.71,1.53c-.3.46-.57.95-.87,1.39l-.92,1.28q-1.85,2.55-3.91,4.94a35.3,35.3,0,0,1-9.7,8.09,22.29,22.29,0,0,1-6.09,2.2,21.12,21.12,0,0,1-6.54.26,29.28,29.28,0,0,1-6.36-1.49,41.18,41.18,0,0,1-5.88-2.7,55.62,55.62,0,0,1-10.26-7.57l-.28-.26-.11-.26a13.62,13.62,0,0,1-.92-3.75,12.1,12.1,0,0,1,.14-3.84,9.4,9.4,0,0,1,4.25-6.23,16.77,16.77,0,0,1,6.76-2.29A47.35,47.35,0,0,1,517.49,477.66Zm0,.3a28.7,28.7,0,0,0-6.81.8,14.1,14.1,0,0,0-5.89,2.93,7.78,7.78,0,0,0-2.66,5.31,11.47,11.47,0,0,0,.15,3,14.11,14.11,0,0,0,.85,2.91l-.39-.53a77.68,77.68,0,0,0,9.79,7.17,43.74,43.74,0,0,0,5.34,2.69,28.55,28.55,0,0,0,5.69,1.61,20.93,20.93,0,0,0,11.63-1.24,25.68,25.68,0,0,0,9.65-7.33,38.62,38.62,0,0,0,3.58-5l.76-1.34c.24-.45.43-.89.64-1.34a11.25,11.25,0,0,0,.45-1.35,3.87,3.87,0,0,0,.1-.67,2.89,2.89,0,0,0,.05-.65,3.82,3.82,0,0,0-.79-2.23,7,7,0,0,0-2-1.56,21.28,21.28,0,0,0-5.51-1.75,106.38,106.38,0,0,0-12.15-1.57A67.93,67.93,0,0,0,517.51,478Z"/><path class="cls-3" d="M453.63,431.56c8.7,8.09,62.5,35.44,72.2.16s9.7-57.33,7.94-79.38-13.12-20.56-13.12-20.56-35.82,3.34-44.86,42.82Z"/><path class="cls-1" d="M490.13,416.84c-.28-6,1.61-15,9.63-13.61,7,1.24,9.71,9.12,11.65,15,.6,1.83,3.5,1,2.89-.8-2.53-7.61-7-18-16.75-17.31-8.39.58-10.75,9.76-10.42,16.75.09,1.92,3.09,1.93,3,0Z"/><path d="M558,416.84c-.28-6,1.61-15,9.63-13.61,7,1.24,9.71,9.12,11.65,15,.61,1.83,3.5,1,2.89-.8-2.53-7.61-7-18-16.75-17.31-8.39.58-10.75,9.76-10.42,16.75.09,1.92,3.09,1.93,3,0Z"/><path d="M558.08,527.57a19.78,19.78,0,0,0,21.28-13.72c.58-1.85-2.32-2.64-2.89-.8a16.85,16.85,0,0,1-18.39,11.52c-1.91-.26-1.89,2.75,0,3Z"/><path d="M576.62,508.74a2.73,2.73,0,0,1,3.57.59,6.39,6.39,0,0,1,1.35,3.91c.07,1,1.57,1,1.5,0-.15-2.06-.69-4.27-2.45-5.56a4.11,4.11,0,0,0-5,0c-.76.59.3,1.65,1.06,1.06Z"/><path d="M487.79,651.36a58,58,0,0,0,11,16.38c1.33,1.4,3.45-.72,2.12-2.12a55.5,55.5,0,0,1-10.5-15.77c-.78-1.77-3.36-.24-2.59,1.51Z"/><path d="M510,653.48l10.2,12.28c1.24,1.49,3.35-.65,2.12-2.12l-10.2-12.28c-1.23-1.48-3.34.65-2.12,2.12Z"/><path d="M541.47,649.05l7.08,11.29c1,1.63,3.62.12,2.59-1.52l-7.07-11.28c-1-1.63-3.63-.13-2.6,1.51Z"/><path d="M573.15,657.22a69.48,69.48,0,0,1,6.94,13c.72,1.77,3.62,1,2.9-.79a73.64,73.64,0,0,0-7.25-13.71c-1.08-1.59-3.68-.09-2.59,1.52Z"/><path d="M324.54,587.07a82.88,82.88,0,0,0,2,21.87c.43,1.88,3.32,1.08,2.89-.8a79.79,79.79,0,0,1-1.94-21.07c.07-1.93-2.93-1.92-3,0Z"/><path d="M339.21,598.64l4.72,21.54c.41,1.89,3.3,1.09,2.89-.79l-4.72-21.55c-.41-1.88-3.31-1.08-2.89.8Z"/><path d="M401.53,585.76a38.74,38.74,0,0,0-25-27.9c-1.82-.65-2.6,2.25-.79,2.89a35.67,35.67,0,0,1,22.87,25.81c.44,1.88,3.33,1.09,2.9-.8Z"/><path d="M398.3,558.2l5.11,8.17c1,1.64,3.62.13,2.59-1.51l-5.11-8.17c-1-1.64-3.62-.13-2.59,1.51Z"/></svg>