<svg id="Layer_1" data-name="Layer 1" xmlns="http://www.w3.org/2000/svg" viewBox="0 0 771.17 1033.1"><defs><style>.cls-1,.cls-2{fill:#fff;}.cls-2,.cls-3{stroke:#000;stroke-miterlimit:10;}</style></defs><title>Untitled-1</title><path class="cls-1" d="M330.41,795.34s-88,3.44-69.72-160.65c0,0,34.88,135,102.52,99.4C363.21,734.09,351.52,776.71,330.41,795.34Z" transform="translate(-163.33 -30.04)"/><path d="M330.41,795.34a56.85,56.85,0,0,1-23.74-5.54,70.39,70.39,0,0,1-10.62-6.25,71.6,71.6,0,0,1-9.29-8.11,84.08,84.08,0,0,1-14.18-20.13,116.43,116.43,0,0,1-8.88-23l-.86-3-.69-3-1.36-6-1.05-6.08-.52-3c-.18-1-.26-2-.39-3.06-.46-4.08-1-8.15-1.21-12.25l-.42-6.15c-.13-2-.12-4.1-.18-6.15a377.89,377.89,0,0,1,2.23-49.09l.8-7.7,2,7.5c1.77,6.5,3.89,13,6.15,19.38s4.71,12.73,7.38,19c5.38,12.44,11.59,24.58,19.37,35.64a105,105,0,0,0,13,15.41,61.86,61.86,0,0,0,16.32,11.48,39.65,39.65,0,0,0,19.36,3.71,44.07,44.07,0,0,0,9.82-1.78,61.38,61.38,0,0,0,9.3-3.81l1.8-.91-.56,1.9c-1.68,5.67-3.64,11.19-5.81,16.66s-4.56,10.83-7.26,16a133,133,0,0,1-9,15.14A75.12,75.12,0,0,1,330.41,795.34Zm0,0a77.7,77.7,0,0,0,11.13-13.49,131.13,131.13,0,0,0,8.54-15.27c2.55-5.25,4.76-10.66,6.81-16.12s3.93-11,5.48-16.6l1.25,1a63.34,63.34,0,0,1-9.55,4.08,46.34,46.34,0,0,1-10.24,2,41.78,41.78,0,0,1-20.47-3.61,61.32,61.32,0,0,1-17.13-11.76,107.4,107.4,0,0,1-13.43-15.72,201.46,201.46,0,0,1-19.83-36,282.64,282.64,0,0,1-13.69-38.77l2.85-.21a376,376,0,0,0-2.46,48.71c.06,2,0,4.07.15,6.09l.38,6.08c.17,4.07.71,8.09,1.13,12.13.12,1,.18,2,.35,3l.47,3,.93,6,1.26,6,.64,3,.8,2.93a114,114,0,0,0,8.38,22.76,86.14,86.14,0,0,0,13.58,20A65.25,65.25,0,0,0,307,789.14a64.76,64.76,0,0,0,11.37,4.32A49.22,49.22,0,0,0,330.41,795.34Z" transform="translate(-163.33 -30.04)"/><path class="cls-1" d="M795.49,719.78s38,25.82,38,144.33c0,0,1.72,60.21,49.27,79a103,103,0,0,1,30.39,19.14c23.7,21.15,44,51.17-44.72,43.11,0,0-10.63,44.06-77.48,22.79,0,0-63.49-28.8-72.77-104,0,0-153.62,166.33-278.2-.79,0,0,0,145.85-71.41,138.26,0,0-91.16-9.12-63.81-42.54,0,0-142.44,40.14-92.09-24.08,8.52-10.87,53.82-26.85,76.07-37.67a53.75,53.75,0,0,0,30.1-49.3c-.87-54.25,5.67-151.8,53.45-180.67C431,691.89,795.49,719.78,795.49,719.78Z" transform="translate(-163.33 -30.04)"/><path d="M795.49,719.78a41.72,41.72,0,0,1,8.74,8.76A84.8,84.8,0,0,1,811,739a122.54,122.54,0,0,1,5.49,11.15c.86,1.88,1.59,3.82,2.38,5.74s1.47,3.87,2.14,5.83a201,201,0,0,1,6.51,24,236.12,236.12,0,0,1,3.85,24.49c1,8.21,1.42,16.46,1.8,24.7.14,4.12.33,8.24.35,12.36l.08,6.19-.05,6.18v3.09c0,1,0,2.05.06,3.08.13,2.06.35,4.1.61,6.15A81.79,81.79,0,0,0,836.7,884a113.94,113.94,0,0,0,4,11.62q2.31,5.7,5,11.17a79.25,79.25,0,0,0,14,19.86,66.39,66.39,0,0,0,19.75,14c1.83.87,3.71,1.57,5.65,2.39s3.82,1.68,5.68,2.63a100,100,0,0,1,10.77,6.31,121.29,121.29,0,0,1,19.06,16,81.49,81.49,0,0,1,8.13,9.52c2.4,3.42,4.63,7.15,5.46,11.5a11.59,11.59,0,0,1-4.62,11.92,23,23,0,0,1-5.68,3.07,43.87,43.87,0,0,1-6.07,1.79c-8.22,1.74-16.55,2-24.81,1.92s-16.52-.69-24.74-1.49l.81-.57a36.61,36.61,0,0,1-5,10.4,40.33,40.33,0,0,1-7.76,8.48,42.23,42.23,0,0,1-9.8,6,50.93,50.93,0,0,1-11,3.32,74,74,0,0,1-22.77.3,128.83,128.83,0,0,1-22.17-5.07l-.06,0,0,0a109.88,109.88,0,0,1-14.33-8.47,143.66,143.66,0,0,1-13.11-10.19,140.55,140.55,0,0,1-22.28-24.58,132.83,132.83,0,0,1-15.69-29.24,138.58,138.58,0,0,1-8-32.21h0l1.7.55c-4.6,5.08-9.5,9.79-14.53,14.39s-10.24,9-15.59,13.22a269.09,269.09,0,0,1-33.91,23,217.69,217.69,0,0,1-37.42,17A164.7,164.7,0,0,1,577,1000.9a134.75,134.75,0,0,1-80.16-18.68,167.37,167.37,0,0,1-17.23-11.72,203.19,203.19,0,0,1-15.64-13.65,138.86,138.86,0,0,1-13.78-15.42,111.43,111.43,0,0,1-11.11-17.38h0l2.06-.68c-.11,11.15-.86,22.22-2.07,33.27a308.23,308.23,0,0,1-5.38,32.91,187.44,187.44,0,0,1-9.91,31.89c-4.36,10.25-10,20.21-18.09,28.16a47.92,47.92,0,0,1-13.9,9.64,43.06,43.06,0,0,1-16.52,3.69,56.3,56.3,0,0,1-8.43-.48c-2.76-.33-5.51-.72-8.26-1.15-5.49-.87-11-1.89-16.38-3.13a163.82,163.82,0,0,1-16.09-4.45,80.85,80.85,0,0,1-15.34-6.76,35.25,35.25,0,0,1-6.81-5.07,17.33,17.33,0,0,1-4.66-7.3,13.84,13.84,0,0,1,.35-8.72,25.8,25.8,0,0,1,4.3-7.45h0l1.12,1.7c-9.1,2.57-18.26,4.76-27.51,6.69s-18.54,3.55-27.94,4.62c-4.7.54-9.42.94-14.16,1.12a98.57,98.57,0,0,1-14.26-.37,48,48,0,0,1-7.1-1.26,25.42,25.42,0,0,1-6.79-2.77,11.95,11.95,0,0,1-6-12.86,25.86,25.86,0,0,1,2.21-6.88,51.84,51.84,0,0,1,3.45-6.24c1.27-2,2.64-3.93,4-5.82a29.18,29.18,0,0,1,2.27-2.79,26.32,26.32,0,0,1,2.7-2.37,90.68,90.68,0,0,1,12.1-7.43q6.27-3.29,12.67-6.29c8.53-4,17.18-7.73,25.75-11.61,4.29-1.94,8.55-3.94,12.78-6,2.11-1,4.22-2,6.3-3.09s4.1-2.1,6-3.28a53.52,53.52,0,0,0,18.71-19.28,51.61,51.61,0,0,0,5.11-12.58,53,53,0,0,0,1.79-13.51,540.63,540.63,0,0,1,3-56.48,364.84,364.84,0,0,1,9.81-55.6,192,192,0,0,1,9.1-26.72l2.79-6.5a64.45,64.45,0,0,1,3.19-6.32,99.77,99.77,0,0,1,7.76-11.85A68,68,0,0,1,373.94,726a71.25,71.25,0,0,1,13.23-5.08c4.54-1.31,9.14-2.36,13.77-3.26,9.25-1.8,18.6-3.05,28-4.06s18.75-1.75,28.15-2.34c18.79-1.16,37.61-1.72,56.43-2s37.64-.2,56.46.06c37.64.54,75.26,1.84,112.85,3.62S758,717,795.49,719.78Zm0,0q-56.31-4-112.71-6.51c-37.6-1.7-75.22-3-112.85-3.43-18.81-.23-37.63-.26-56.44,0s-37.63.88-56.4,2.08c-9.38.6-18.76,1.35-28.11,2.37s-18.66,2.29-27.88,4.1c-4.61.91-9.19,2-13.69,3.26a70.7,70.7,0,0,0-13.06,5,67.3,67.3,0,0,0-20.78,18.51A100.53,100.53,0,0,0,345.9,757l-3.37,6.17c-1.11,2.07-2.19,4.16-3.09,6.33a191.27,191.27,0,0,0-9,26.69,318.93,318.93,0,0,0-8.9,55.62,521,521,0,0,0-1.08,56.3,55.21,55.21,0,0,1-6.66,28.06,53.6,53.6,0,0,1-20.13,20.78,115.56,115.56,0,0,1-13,5.95c-4.37,1.79-8.77,3.48-13.15,5.21-8.75,3.47-17.46,7-26.08,10.76-4.3,1.89-8.58,3.82-12.76,5.95a80.61,80.61,0,0,0-12,7.18,24.69,24.69,0,0,0-2.61,2.27,28,28,0,0,0-2.19,2.68c-1.42,1.86-2.75,3.79-4,5.77-2.43,3.95-4.53,8.26-5.08,12.76a10.28,10.28,0,0,0,5.57,10.91c3.9,2.16,8.52,3,13.09,3.53a96.55,96.55,0,0,0,13.93.29c4.66-.2,9.32-.62,14-1.17,9.3-1.13,18.55-2.69,27.74-4.57s18.36-4,27.41-6.4l3.17-.84-2.06,2.54h0a23.55,23.55,0,0,0-4.16,6.75,12,12,0,0,0-.44,7.58,15.14,15.14,0,0,0,4.16,6.57,33.28,33.28,0,0,0,6.46,4.85,79.2,79.2,0,0,0,15.05,6.51,164.34,164.34,0,0,0,15.94,4.31c5.38,1.19,10.82,2.18,16.27,3q4.09.62,8.2,1.1a54.15,54.15,0,0,0,8.13.41,40.73,40.73,0,0,0,15.68-3.6,45.61,45.61,0,0,0,13.19-9.28,68.72,68.72,0,0,0,10-12.86,106.31,106.31,0,0,0,7.47-14.61A184,184,0,0,0,431.3,989a307.42,307.42,0,0,0,5.34-32.64c1.21-11,2-22,2.18-33l0-2.83,2,2.14h0c5,4.7,9.67,9.54,14.39,14.3s9.41,9.48,14.22,14.07A191.37,191.37,0,0,0,484.62,964,164,164,0,0,0,501,975.11a138.48,138.48,0,0,0,36.3,15.23,131,131,0,0,0,39.24,3.89A158.92,158.92,0,0,0,615.68,987,211.66,211.66,0,0,0,652.6,971.3a292.75,292.75,0,0,0,64.84-47.81l1.47-1.46.24,2h0a136.3,136.3,0,0,0,7.8,31.77,131,131,0,0,0,15.41,28.86,141.51,141.51,0,0,0,34.87,34.4,110.07,110.07,0,0,0,14.06,8.36l-.1,0a127.69,127.69,0,0,0,21.87,5,72.29,72.29,0,0,0,22.27-.24,43.85,43.85,0,0,0,20.09-8.94,38.77,38.77,0,0,0,7.47-8.14,35,35,0,0,0,4.8-9.89l.18-.62.62,0c8.2.66,16.41,1.14,24.61,1.17s16.44-.35,24.35-2.11c3.9-.93,7.83-2.19,10.9-4.53a9.43,9.43,0,0,0,3.8-9.85c-.73-3.79-2.81-7.35-5.13-10.62a81.53,81.53,0,0,0-7.93-9.23,126,126,0,0,0-18.73-15.71,99,99,0,0,0-10.52-6.2c-1.8-.94-3.66-1.77-5.52-2.59s-3.84-1.54-5.72-2.44a68.92,68.92,0,0,1-20.34-14.47A81.59,81.59,0,0,1,844,907.65c-3.82-7.42-6.08-15.51-7.68-23.59s-3-16.24-3-24.51l-.17-6.17-.3-6.17c-.16-4.12-.49-8.22-.76-12.33-.66-8.2-1.51-16.38-2.67-24.51s-2.45-16.24-4.13-24.27-3.69-16-6.18-23.79c-.6-2-1.3-3.88-1.94-5.83s-1.4-3.85-2.19-5.74c-1.5-3.81-3.24-7.52-5.11-11.16a92.39,92.39,0,0,0-6.33-10.51A49.75,49.75,0,0,0,795.49,719.78Z" transform="translate(-163.33 -30.04)"/><path class="cls-2" d="M708.89,739.53S581.27,1028.2,450.6,721.3l-.21,4.27" transform="translate(-163.33 -30.04)"/><path class="cls-1" d="M450.39,725.57,438.45,958.31s4.56,110.91-79,103.32c0,0-80.52-16.72-53.17-41,3.21-2.85,71.41-34.94,65.33-123.06,0,0-28.87-463.4,50.14-436,3-34.92,110,1.74,157.55,3.72,24.44,1,164.57-37.67,188.36,6,0,0,20.25,13.12,26.32,256.21,0,0-3.52,190.88,6.08,218.79,2.21,6.42,65.47,48.32,66.85,60.77,1.52,13.67-30.38,63.81-106.35,3,0,0-66.85-27.35-51.66-270.44" transform="translate(-163.33 -30.04)"/><path d="M450.39,725.57q-.79,29.13-1.92,58.24l-1.14,29.11L446.05,842l-2.86,58.2c-.59,19.41-1.86,38.79-2.9,58.19v-.17a162.3,162.3,0,0,1-.8,18.88,175.21,175.21,0,0,1-2.82,18.63c-2.6,12.28-6.59,24.42-13,35.36a72.94,72.94,0,0,1-11.64,15,58.1,58.1,0,0,1-24.47,14.35,65.63,65.63,0,0,1-9.29,2,82.43,82.43,0,0,1-18.9.29h-.12c-7.05-1.58-14-3.47-20.84-5.64a154.5,154.5,0,0,1-20.14-7.83,68,68,0,0,1-9.41-5.45,25,25,0,0,1-7.66-7.94,10.82,10.82,0,0,1-1.35-5.57,11.28,11.28,0,0,1,1.77-5.42,20.66,20.66,0,0,1,3.57-4.26l.51-.46.31-.25a3,3,0,0,1,.31-.22c.39-.26.78-.49,1.17-.73l2.3-1.38a132.26,132.26,0,0,0,32.6-27.39,119.66,119.66,0,0,0,21.51-36.71,129.63,129.63,0,0,0,7.59-41.93c.08-3.57,0-7.14-.17-10.7l-.63-10.72-1.11-21.47q-2.07-42.93-3-85.9t-.67-86c.21-28.66.93-57.32,2.6-85.94.84-14.32,1.93-28.62,3.4-42.89s3.29-28.51,5.89-42.66c1.3-7.07,2.79-14.11,4.62-21.09a153.56,153.56,0,0,1,6.79-20.59,79.27,79.27,0,0,1,4.88-9.81,43.32,43.32,0,0,1,6.78-8.87,22.29,22.29,0,0,1,9.92-5.87,20.32,20.32,0,0,1,11.62.64l-2.49,1.62h0a15.73,15.73,0,0,1,1.76-6.14,15.13,15.13,0,0,1,4.19-4.86,27.43,27.43,0,0,1,11.17-4.6,69,69,0,0,1,11.57-1.18c3.85-.09,7.67,0,11.47.27,15.22,1,30.14,3.62,45,6.39s29.6,5.87,44.41,8.48c7.4,1.29,14.82,2.47,22.24,3.26q2.79.29,5.57.48c.91.05,1.89.12,2.75.13s1.79,0,2.7-.07c3.67-.23,7.39-.72,11.1-1.25,14.85-2.18,29.72-4.88,44.64-7.12s29.92-4.25,45-5.41c7.54-.58,15.12-.95,22.7-1A181,181,0,0,1,728.91,450a85.3,85.3,0,0,1,22.31,5.53,42.85,42.85,0,0,1,10.13,5.87,29.9,29.9,0,0,1,7.71,9h0l-.54-.58a4.16,4.16,0,0,1,.85.82c.18.22.33.44.49.66a14.75,14.75,0,0,1,.77,1.3,13.25,13.25,0,0,1,.66,1.3c.21.43.42.87.59,1.3.76,1.74,1.36,3.5,1.94,5.27,1.13,3.53,2.07,7.09,2.91,10.66,1.68,7.15,3,14.36,4.12,21.58,2.29,14.43,3.95,28.94,5.39,43.46,2.83,29,4.62,58.15,6,87.27l1,21.84.8,21.85.66,21.86.29,10.94.14,5.47c0,.9.07,1.83,0,2.76l0,2.73q-.75,43.68-.69,87.39c0,14.57.15,29.13.41,43.69s.65,29.12,1.39,43.66c.38,7.26.84,14.53,1.54,21.76.36,3.61.77,7.22,1.35,10.79.28,1.78.61,3.55,1,5.29.2.85.46,1.76.72,2.51a4.92,4.92,0,0,0,.63.93c.27.33.56.65.87,1a105.63,105.63,0,0,0,8.14,7.13c2.82,2.29,5.68,4.54,8.54,6.79,5.74,4.49,11.5,9,17.2,13.5s11.36,9.15,16.82,14c2.73,2.44,5.41,4.93,7.94,7.59a53.85,53.85,0,0,1,3.62,4.19,15.92,15.92,0,0,1,2.78,5,8.41,8.41,0,0,1,.16,2.94,18.48,18.48,0,0,1-.48,2.79,29.07,29.07,0,0,1-2,5.23,39,39,0,0,1-6.25,9.14,41.72,41.72,0,0,1-18.53,11.69,51.21,51.21,0,0,1-21.87,1.58,81.66,81.66,0,0,1-21.09-6c-13.5-5.74-25.71-14-37.1-23.11l.11.06h0a34.26,34.26,0,0,1-7.27-5.28,69.37,69.37,0,0,1-6.13-6.47,103.68,103.68,0,0,1-10.07-14.68,182.15,182.15,0,0,1-14.13-32.67c-7.4-22.61-11.78-46.11-14.42-69.69-.7-5.9-1.2-11.82-1.67-17.74l-.62-8.88-.45-8.89q-.37-8.88-.56-17.78c-.09-5.93-.1-11.86-.07-17.79q.13-17.79,1.13-35.54t2.76-35.42c-.49,23.68-1,47.32-.58,71q.13,8.85.43,17.71t.71,17.69c.33,5.89.68,11.78,1.11,17.66s1,11.76,1.55,17.63c2.41,23.44,6,46.85,12.59,69.49,1.67,5.65,3.56,11.24,5.72,16.72a144.66,144.66,0,0,0,7.39,16,96.73,96.73,0,0,0,9.7,14.75,57.38,57.38,0,0,0,6,6.42,29.34,29.34,0,0,0,7.15,5h0l.06,0,0,0c11.39,9,23.57,17.2,37,22.84a80.74,80.74,0,0,0,20.84,5.84,50.13,50.13,0,0,0,21.38-1.6,40.53,40.53,0,0,0,18-11.42,37.47,37.47,0,0,0,6-8.86,27.49,27.49,0,0,0,1.85-5,19.47,19.47,0,0,0,.44-2.59,7.3,7.3,0,0,0-.14-2.49,14.33,14.33,0,0,0-2.57-4.49,50.31,50.31,0,0,0-3.54-4.07c-2.5-2.61-5.16-5.07-7.88-7.48-5.44-4.81-11.1-9.38-16.81-13.9s-11.48-9-17.23-13.43c-2.88-2.24-5.75-4.49-8.59-6.78a106.3,106.3,0,0,1-8.31-7.24,14.1,14.1,0,0,1-1-1.06,5.35,5.35,0,0,1-.87-1.34,23.88,23.88,0,0,1-.81-2.73c-.45-1.8-.8-3.61-1.09-5.42-.59-3.62-1-7.25-1.39-10.89-.73-7.27-1.22-14.55-1.62-21.83-.79-14.56-1.23-29.14-1.55-43.71s-.47-29.15-.56-43.72q-.23-43.72.4-87.44l0-2.73c0-.9,0-1.79,0-2.71l-.16-5.45L792.25,709l-.73-21.83-.87-21.83-1-21.82c-1.5-29.08-3.39-58.15-6.3-87.11-1.48-14.47-3.18-28.93-5.51-43.26-1.16-7.17-2.47-14.31-4.15-21.34-.84-3.52-1.77-7-2.87-10.41-.56-1.69-1.14-3.38-1.85-5-.16-.41-.35-.79-.54-1.18s-.37-.77-.58-1.14-.41-.7-.62-1l-.32-.44-.15-.16,0,0s0,0,.08.05l-.53-.58h0a26.56,26.56,0,0,0-6.89-8.05,40,40,0,0,0-9.38-5.42,82.45,82.45,0,0,0-21.46-5.28A175.21,175.21,0,0,0,706.15,452c-7.49,0-15,.4-22.47,1-15,1.16-29.89,3.13-44.77,5.4s-29.7,4.95-44.67,7.16c-3.76.53-7.51,1-11.37,1.28-1,.05-2,.09-3,.08s-1.93-.07-2.9-.12q-2.87-.16-5.7-.44c-7.58-.71-15.06-1.87-22.52-3.13-14.9-2.54-29.68-5.55-44.49-8.24-7.4-1.35-14.81-2.62-22.24-3.72s-14.85-2-22.29-2.51-14.93-.56-22,.83a24.15,24.15,0,0,0-9.61,3.84A11.22,11.22,0,0,0,425,457a12,12,0,0,0-1.36,4.65h0l-.29,2.4-2.2-.78a16.55,16.55,0,0,0-9.52-.7,18.93,18.93,0,0,0-8.4,4.86,39.64,39.64,0,0,0-6.34,8.08,76.26,76.26,0,0,0-4.78,9.36A151.72,151.72,0,0,0,385.21,505c-1.87,6.86-3.43,13.83-4.79,20.83-5.4,28.05-8.06,56.62-10,85.16-3.63,57.15-3.87,114.49-2.72,171.75q.87,43,2.86,85.88l1.07,21.46.61,10.73c.16,3.59.23,7.18.14,10.77a132.53,132.53,0,0,1-7.56,42.28A120.55,120.55,0,0,1,343.28,991a136.83,136.83,0,0,1-32.78,27.83l-2.29,1.41-1.1.7-.24.17a2.31,2.31,0,0,0-.21.18l-.48.44a19,19,0,0,0-3.28,4,9.72,9.72,0,0,0-1.5,4.69,9.18,9.18,0,0,0,1.21,4.74c1.63,3,4.36,5.29,7.21,7.3a66.61,66.61,0,0,0,9.21,5.22,152.17,152.17,0,0,0,20,7.54c6.8,2.1,13.73,3.92,20.68,5.39l-.12,0a80.9,80.9,0,0,0,18.34-.47,64.64,64.64,0,0,0,8.92-2,57.15,57.15,0,0,0,8.47-3.35A56,56,0,0,0,410,1044.1a70.14,70.14,0,0,0,11-14.53c6.1-10.61,9.91-22.46,12.35-34.5A173.33,173.33,0,0,0,436,976.79a159.82,159.82,0,0,0,.63-18.4v-.17c.95-19.4,1.66-38.81,3.06-58.19l3.11-58.18,1.71-29.08,1.85-29.07Q448.23,754.63,450.39,725.57Z" transform="translate(-163.33 -30.04)"/><path d="M317.55,771.56a54.33,54.33,0,0,1-30.14-30.78c-.17-.45-.9-.25-.72.2a55.16,55.16,0,0,0,30.66,31.3c.45.19.64-.54.2-.72Z" transform="translate(-163.33 -30.04)"/><polygon class="cls-1" points="285.75 686.7 294.87 753.55 379.95 838.63 492.38 832.55 542.52 733.8 548.6 694.29 285.75 686.7 285.75 686.7"/><path d="M694.29,604.27c-5.47,9.88-10.82,19.85-16.42,29.66-1.35,2.39-2.66,4.84-5.18,6.13-4.15,2.12-8.18-.48-10.69-3.87-3.59-4.85-5.2-11.37-5.37-17.34-.12-4.23,1.06-20.42,9.89-12.85,3.85,3.32,7,8.44,10.19,12.36l21.63,26.4c.61.75,1.67-.32,1.06-1.06l-16.69-20.36-8-9.81c-2.58-3.14-5-6.95-8.14-9.59-10.26-8.68-11.85,11.31-11.26,17.4.72,7.5,6.54,25.51,17.53,20.57,4.66-2.09,7-8.35,9.26-12.46L695.58,605c.47-.85-.82-1.61-1.29-.76Z" transform="translate(-163.33 -30.04)"/><path class="cls-1" d="M479.71,170.34s-37.29-23.55-39.25-58.88S509.15,33,509.15,33s15.7-17.66,31.4,53C540.55,86,503.26,172.3,479.71,170.34Z" transform="translate(-163.33 -30.04)"/><path d="M479.66,170.48a85.46,85.46,0,0,1-9.31-6.56,100,100,0,0,1-8.52-7.56,90.06,90.06,0,0,1-14.15-17.91,61.62,61.62,0,0,1-8-21.54,46.4,46.4,0,0,1-.6-5.78l0-3c.09-1,.24-2,.36-2.93a42.87,42.87,0,0,1,3.61-11.07A85.13,85.13,0,0,1,456.3,75.48a193,193,0,0,1,16.28-15.83c5.69-5,11.55-9.76,17.59-14.31s12.15-9,18.52-13.12l-.19.17a7.07,7.07,0,0,1,2-1.49,7.29,7.29,0,0,1,2.32-.77,8.08,8.08,0,0,1,4.74.77,14,14,0,0,1,3.78,2.66l.81.79.75.84c.51.55.94,1.16,1.39,1.74a69.34,69.34,0,0,1,8.09,15.49c2.12,5.4,3.87,10.9,5.47,16.44s3,11.14,4.28,16.74l.12.5-.21.48q-5.41,12.35-11.57,24.26t-13.15,23.43c-2.35,3.82-4.78,7.59-7.34,11.27s-5.3,7.26-8.22,10.69a65.26,65.26,0,0,1-9.62,9.47,28.08,28.08,0,0,1-5.78,3.56A12.92,12.92,0,0,1,479.66,170.48Zm.1-.29a11.75,11.75,0,0,0,3.21-.38,16.7,16.7,0,0,0,3-1.21,26.7,26.7,0,0,0,5.4-3.74,70.81,70.81,0,0,0,9-9.71c2.74-3.48,5.27-7.13,7.68-10.86s4.75-7.5,7-11.34c4.47-7.68,8.58-15.58,12.59-23.52s7.83-16,11.4-24.11l-.09,1c-1.24-5.58-2.5-11.15-4-16.64s-3.17-10.95-5.16-16.26a68,68,0,0,0-7.43-15.1c-.41-.55-.8-1.13-1.25-1.64l-.66-.79-.71-.73a11.94,11.94,0,0,0-3.13-2.4,6.08,6.08,0,0,0-3.59-.73,5.71,5.71,0,0,0-3.25,1.53l-.13.12-.07,0a250.28,250.28,0,0,0-36.39,26.67c-2.83,2.48-5.51,5.13-8.17,7.78s-5.15,5.48-7.53,8.38a84,84,0,0,0-12.15,18.68,42.89,42.89,0,0,0-3.22,10.44c-.1.89-.23,1.79-.32,2.68V111a50.66,50.66,0,0,0,.55,5.47,61.88,61.88,0,0,0,7.35,20.8,93.49,93.49,0,0,0,13.26,18A118.9,118.9,0,0,0,479.76,170.19Z" transform="translate(-163.33 -30.04)"/><path class="cls-1" d="M476.39,169.68S447.61,143,441.44,118.29c0,0,42.2-7.25,51.39-16.45C503.11,91.56,497,103.9,509.28,34c0,0,20.56-12.33,32.89,55.51S476.39,169.68,476.39,169.68Z" transform="translate(-163.33 -30.04)"/><path d="M476.34,169.82c-.14-.11-.29-.24-.42-.36l-.37-.32-.73-.66-1.45-1.34c-.95-.9-1.89-1.81-2.82-2.74s-1.85-1.86-2.76-2.81-1.82-1.9-2.71-2.86c-1.8-1.91-3.52-3.91-5.2-5.93l-2.5-3.05L455,146.62c-.81-1-1.55-2.14-2.32-3.2l-1.16-1.61-1.08-1.66c-.71-1.11-1.47-2.2-2.15-3.34l-2-3.44a69.29,69.29,0,0,1-6.09-14.77l-.36-1.33,1.39-.26c10.23-1.9,20.43-4.19,30.45-7a100.43,100.43,0,0,0,14.63-5.1,22.46,22.46,0,0,0,6.34-4.06c1-.91,1.93-1.8,2.91-2.66A12.68,12.68,0,0,0,498,95.46a5.59,5.59,0,0,0,.41-.81,5.83,5.83,0,0,0,.35-.85c.17-.61.41-1.19.54-1.83l.42-1.88.34-1.93c.45-2.56.86-5.15,1.25-7.73l2.32-15.53,4.82-31,.06-.38.33-.19a8.66,8.66,0,0,1,3.13-1,10.34,10.34,0,0,1,3.19.08,14.13,14.13,0,0,1,5.72,2.48A23.35,23.35,0,0,1,525.38,39c.69.75,1.24,1.59,1.87,2.38s1.14,1.66,1.67,2.51c4.19,6.83,6.93,14.32,9.21,21.86a221.86,221.86,0,0,1,5.48,23,75.1,75.1,0,0,1,.87,23.85A58.06,58.06,0,0,1,536.24,135a62,62,0,0,1-7.44,9.39l-1,1.09c-.35.35-.72.68-1.08,1l-2.19,2c-1.55,1.25-3,2.58-4.66,3.72a77.66,77.66,0,0,1-10,6.34,100.07,100.07,0,0,1-10.72,5,104,104,0,0,1-11.18,3.74c-1.89.52-3.79,1-5.71,1.43-1,.22-1.92.4-2.88.58l-1.45.26-.73.11A6.41,6.41,0,0,1,476.34,169.82Zm.09-.28,2.78-.66c1-.24,1.89-.49,2.83-.75,1.88-.52,3.74-1.1,5.59-1.71,3.69-1.23,7.32-2.66,10.87-4.22a93.57,93.57,0,0,0,19.92-11.78c1.56-1.14,3-2.46,4.43-3.7l2.06-2c.34-.34.69-.67,1-1l1-1.07a59.22,59.22,0,0,0,6.9-9.12,56.69,56.69,0,0,0,7.52-21.37,74.89,74.89,0,0,0-.77-22.84,221.5,221.5,0,0,0-5.12-22.72c-2.17-7.42-4.69-14.81-8.55-21.42-.48-.82-1-1.61-1.52-2.42s-1.08-1.56-1.7-2.26a22,22,0,0,0-4-3.93,12.25,12.25,0,0,0-4.87-2.32,8.75,8.75,0,0,0-2.65-.17,7.24,7.24,0,0,0-2.46.65l.38-.56c-.95,5.14-2,10.28-2.88,15.42s-1.76,10.32-2.61,15.48l-1.21,7.75-1.11,7.77c-.37,2.59-.7,5.18-1.1,7.78l-.3,2-.38,2c-.11.65-.34,1.31-.5,2a6,6,0,0,1-.36,1,6.92,6.92,0,0,1-.44,1,14.12,14.12,0,0,1-2.62,3.18c-.94.91-1.87,1.82-2.78,2.74a20.42,20.42,0,0,1-1.5,1.4,18.82,18.82,0,0,1-1.65,1.21,31.26,31.26,0,0,1-3.49,2,97.88,97.88,0,0,1-14.79,5.74,253.13,253.13,0,0,1-30.71,7.13l1-1.59a70.3,70.3,0,0,0,5.64,14.3,127.27,127.27,0,0,0,8.13,13.26c2.95,4.29,6.23,8.34,9.54,12.38.83,1,1.67,2,2.53,3s1.72,2,2.6,2.94l2.64,2.89Z" transform="translate(-163.33 -30.04)"/><path d="M502.15,161.59a48.39,48.39,0,0,1-4.78-5.59,49.83,49.83,0,0,1-4-6.09c-1.15-2.14-2.05-4.45-3.28-6.54a47.38,47.38,0,0,0-4.21-6c-1.56-1.89-3.05-3.81-4.43-5.81s-2.81-4-4.08-6a87.36,87.36,0,0,1-6.63-13l.26-.16a87.22,87.22,0,0,1,9.07,11.49c1.35,2,2.55,4.12,3.77,6.23s2.36,4.25,3.42,6.45a47.09,47.09,0,0,0,3.64,6.32c1.39,2,3.1,3.78,4.57,5.72a49.1,49.1,0,0,1,3.85,6.18,47.6,47.6,0,0,1,3.08,6.67Z" transform="translate(-163.33 -30.04)"/><path d="M537.48,128.23a54.38,54.38,0,0,1-5.14-5.95,57.5,57.5,0,0,1-4.37-6.45c-1.26-2.27-2.29-4.71-3.65-6.92a54.25,54.25,0,0,0-4.57-6.32c-1.68-2-3.3-4-4.79-6.17s-3.06-4.21-4.45-6.4a99,99,0,0,1-7.37-13.8l.25-.17a100.69,100.69,0,0,1,9.79,12.21c1.47,2.14,2.8,4.37,4.14,6.6s2.61,4.5,3.8,6.83a53,53,0,0,0,4,6.68c1.51,2.12,3.34,4,4.93,6.08a57.06,57.06,0,0,1,4.22,6.55,53,53,0,0,1,3.45,7.06Z" transform="translate(-163.33 -30.04)"/><path class="cls-1" d="M636.69,114.33c8-4,72.26-91.58,99-71.67s13.38,125.42-24.09,161.26S636.69,114.33,636.69,114.33Z" transform="translate(-163.33 -30.04)"/><path d="M636.5,114.25a14.29,14.29,0,0,0,1.39-1.12c.41-.39.8-.79,1.19-1.2.78-.81,1.54-1.66,2.29-2.5,1.51-1.69,3-3.42,4.45-5.15,2.94-3.47,5.84-7,8.82-10.41,5.92-6.92,12-13.73,18.3-20.31a241.92,241.92,0,0,1,20-18.82A118.54,118.54,0,0,1,704,46.5a60.91,60.91,0,0,1,12.44-6.4,31.23,31.23,0,0,1,6.95-1.69,19.84,19.84,0,0,1,7.31.4,16.32,16.32,0,0,1,6.5,3.44,24.44,24.44,0,0,1,4.63,5.44,45.29,45.29,0,0,1,5.28,12.85,91.77,91.77,0,0,1,2.41,13.53,170,170,0,0,1,.53,27.35A232.26,232.26,0,0,1,747,128.61a206.67,206.67,0,0,1-6.32,26.7,162.93,162.93,0,0,1-10.23,25.55,97.37,97.37,0,0,1-15.7,22.9,39.6,39.6,0,0,1-5.39,4.79,22.88,22.88,0,0,1-6.77,3.24,18.51,18.51,0,0,1-7.62.49,22.38,22.38,0,0,1-7.11-2.35,33,33,0,0,1-6-4.05,49.61,49.61,0,0,1-5.14-4.89,85.83,85.83,0,0,1-8.54-11A180.2,180.2,0,0,1,655,165.83c-3.83-8.31-7.16-16.82-10.27-25.38-1.55-4.29-3-8.61-4.36-13-.69-2.17-1.35-4.34-2-6.53l-1-3.28-.45-1.64-.23-.83-.11-.41A3.15,3.15,0,0,1,636.5,114.25Zm.37.16a.84.84,0,0,1,.15.26l.14.41.28.8.57,1.6,1.17,3.21c.77,2.13,1.57,4.26,2.38,6.38,1.62,4.24,3.33,8.45,5,12.65q5.16,12.59,11.22,24.74a194.89,194.89,0,0,0,13.55,23.34,91.46,91.46,0,0,0,8.32,10.39,46.67,46.67,0,0,0,4.79,4.45,29.7,29.7,0,0,0,5.31,3.5,19.33,19.33,0,0,0,5.78,1.9,14.24,14.24,0,0,0,5.88-.36,18.72,18.72,0,0,0,5.47-2.62,37.63,37.63,0,0,0,4.83-4.2,93.65,93.65,0,0,0,15.35-21.73c8.3-15.91,13.92-33.26,17.74-50.93a202.7,202.7,0,0,0,3.88-26.87,141.12,141.12,0,0,0-.47-27.11c-.27-2.24-.63-4.48-1.08-6.69s-1-4.4-1.62-6.54A43.15,43.15,0,0,0,740,48.93c-2.49-3.58-5.87-6.57-9.93-7.4s-8.42.12-12.45,1.68A64.94,64.94,0,0,0,706,49.48c-3.73,2.46-7.3,5.17-10.8,8s-6.88,5.81-10.2,8.88-6.6,6.18-9.81,9.37-6.39,6.43-9.54,9.69l-9.39,9.87q-4.65,5-9.39,9.9c-1.57,1.64-3.16,3.28-4.78,4.88-.81.81-1.64,1.59-2.5,2.35-.42.38-.86.76-1.31,1.12-.23.17-.45.35-.7.51a3.06,3.06,0,0,1-.36.23A2.22,2.22,0,0,1,636.87,114.41Z" transform="translate(-163.33 -30.04)"/><path class="cls-1" d="M669.84,137.14s29.63-63.49,44.44-48.68-10.58,74.08-10.58,74.08Z" transform="translate(-163.33 -30.04)"/><path d="M669.65,137.19a.56.56,0,0,1,.06-.27l0-.14.1-.28.2-.55.41-1.09.87-2.18c.59-1.45,1.22-2.88,1.84-4.31,1.29-2.85,2.62-5.67,4.05-8.45a154.46,154.46,0,0,1,9.51-16.22,62.53,62.53,0,0,1,12.65-14.17,25,25,0,0,1,4.11-2.64,12.71,12.71,0,0,1,4.8-1.45,7.69,7.69,0,0,1,4.92,1.27,9.86,9.86,0,0,1,1.84,1.68,11.48,11.48,0,0,1,1.45,2,23.75,23.75,0,0,1,2.84,9.1,58.68,58.68,0,0,1,.37,9.46,107.67,107.67,0,0,1-2.5,18.69c-1.37,6.14-3.11,12.16-5,18.13-.94,3-2,5.94-3.09,8.88s-2.27,5.82-3.54,8.73l-1.05,2.41-2.07-1.58c-2.89-2.2-5.73-4.47-8.56-6.73s-5.6-4.54-8.36-6.8l-8.11-6.78C674.81,141.61,672.17,139.39,669.65,137.19Zm.38-.1,9.14,6L688,149c2.88,2,5.75,3.91,8.56,5.89s5.62,4,8.38,6l-3.13.84a341.43,341.43,0,0,0,12.05-34.94,129.66,129.66,0,0,0,3.87-18,43.89,43.89,0,0,0,.26-9.16l-.09-1.14c0-.38-.12-.75-.19-1.13a15,15,0,0,0-.5-2.21L716.9,94c-.11-.36-.28-.7-.42-1s-.28-.7-.44-1l-.59-1a9.92,9.92,0,0,0-1.33-1.76,6.77,6.77,0,0,0-1.65-1.38,5.83,5.83,0,0,0-4-.76c-2.78.47-5.24,2.37-7.39,4.4a63.89,63.89,0,0,0-6,6.81q-2.79,3.63-5.43,7.4c-3.53,5-6.8,10.26-10.06,15.53l-4.81,8-2.39,4-1.2,2-.6,1-.3.5-.15.25-.08.13S670.06,137.24,670,137.09Z" transform="translate(-163.33 -30.04)"/><path class="cls-1" d="M593.59,554S826.28,569.18,732,308.3a182,182,0,0,1-9-36.78c-3.16-22.68-9.42-62.77-19.61-109-15.83-71.75-194.05-69.89-222.64,0-57,139.29-73.86,176.22-73.86,235.31C406.83,430,420.54,536.07,593.59,554Z" transform="translate(-163.33 -30.04)"/><path d="M593.6,553.85a170.48,170.48,0,0,0,20-.34c6.64-.47,13.27-1.25,19.82-2.37a192.54,192.54,0,0,0,38.37-10.45,147,147,0,0,0,34.72-18.91A110.36,110.36,0,0,0,733.4,493.1a112.58,112.58,0,0,0,9.28-17.45,133,133,0,0,0,6.26-18.78,164.42,164.42,0,0,0,4.53-39.38A238.75,238.75,0,0,0,750,377.84a355.61,355.61,0,0,0-8.9-38.88c-1.79-6.4-3.87-12.73-5.93-19.06l-3.29-9.42c-1.09-3.14-2.24-6.31-3.21-9.5a184.19,184.19,0,0,1-4.9-19.47c-1.31-6.58-2.07-13.22-3.08-19.79q-5.9-39.54-13.94-78.71c-1.34-6.53-2.75-13-4.19-19.54a46.43,46.43,0,0,0-7.92-17.77,53.3,53.3,0,0,0-6.45-7.39c-1.15-1.18-2.44-2.2-3.66-3.29s-2.56-2.07-3.92-3a86.88,86.88,0,0,0-8.36-5.25c-2.91-1.54-5.86-3-8.91-4.3a127.53,127.53,0,0,0-18.78-6.32,172,172,0,0,0-19.49-3.79A204.79,204.79,0,0,0,585.4,111a199.52,199.52,0,0,0-39.19,6.21,158.21,158.21,0,0,0-18.79,6.31,115.5,115.5,0,0,0-17.61,8.93,94.71,94.71,0,0,0-8.08,5.63,77.1,77.1,0,0,0-7.31,6.55c-1.18,1.13-2.21,2.4-3.32,3.6l-1.52,1.91-.76,1-.7,1a54,54,0,0,0-5,8.38c-1.35,2.9-2.56,6.09-3.83,9.14l-3.78,9.26L468,197.39c-10.06,24.69-20.16,49.36-29.83,74.18s-18.91,49.86-24.6,75.78a223,223,0,0,0-5.17,39.36l-.24,10c-.05,3.31,0,6.6.27,9.89a136.51,136.51,0,0,0,2.76,19.61,146.82,146.82,0,0,0,5.47,19,141,141,0,0,0,8.15,18.08l2.43,4.32c.81,1.45,1.75,2.81,2.62,4.22,1.71,2.84,3.72,5.48,5.62,8.19,1,1.35,2,2.6,3.07,3.91l1.55,1.94.78,1,.83.92c2.24,2.44,4.35,5,6.77,7.29a162.11,162.11,0,0,0,31.32,24.44,210.31,210.31,0,0,0,36,17.14l4.7,1.68c1.57.54,3.12,1.15,4.72,1.6l9.56,2.91c3.2.93,6.45,1.67,9.67,2.52l4.84,1.22,4.89,1c3.26.66,6.51,1.4,9.79,2l9.86,1.63c1.64.26,3.28.58,4.93.78l5,.62Zm0,.3L583.65,553l-5-.6c-1.66-.2-3.3-.51-4.94-.76L563.86,550c-3.28-.59-6.54-1.31-9.81-2l-4.91-1-4.85-1.2c-3.23-.84-6.49-1.56-9.7-2.48L525,540.51c-1.61-.44-3.17-1-4.74-1.59l-4.73-1.66a216.43,216.43,0,0,1-36.28-16.86,163.67,163.67,0,0,1-31.82-24.31c-2.47-2.27-4.64-4.83-6.93-7.28l-.85-.92-.79-1-1.6-1.94c-1-1.31-2.16-2.56-3.15-3.92-2-2.72-4-5.37-5.79-8.23-.89-1.41-1.87-2.78-2.7-4.24l-2.52-4.36A140.54,140.54,0,0,1,414.62,446a144.13,144.13,0,0,1-5.77-19.3,141,141,0,0,1-3-19.94c-.27-3.35-.38-6.73-.35-10.08l.16-10a226.93,226.93,0,0,1,4.93-39.88,375.32,375.32,0,0,1,10.9-38.64l3.28-9.47c1.07-3.16,2.28-6.27,3.42-9.41,2.26-6.29,4.68-12.51,7.07-18.74,9.62-24.89,19.86-49.52,30-74.19l7.61-18.49,3.8-9.25c1.3-3.09,2.45-6.14,3.92-9.28a57.29,57.29,0,0,1,5.24-8.79l.74-1,.8-1,1.6-2c1.15-1.25,2.23-2.57,3.46-3.74a79.64,79.64,0,0,1,7.6-6.76,96.69,96.69,0,0,1,8.34-5.77,118.47,118.47,0,0,1,18-9.07,159.9,159.9,0,0,1,19.13-6.34,201.37,201.37,0,0,1,39.7-6.16,207.93,207.93,0,0,1,40.13,1.55,174.66,174.66,0,0,1,19.73,3.91,130.14,130.14,0,0,1,19.06,6.5c3.1,1.3,6.1,2.84,9.07,4.43a86.63,86.63,0,0,1,8.55,5.41c1.39,1,2.68,2.05,4,3.09s2.58,2.18,3.76,3.4a54.7,54.7,0,0,1,6.65,7.68,48.45,48.45,0,0,1,8.17,18.51c1.41,6.52,2.8,13,4.12,19.58q8,39.21,13.81,78.82c1,6.61,1.75,13.23,3,19.73a180.36,180.36,0,0,0,4.81,19.31c1,3.18,2.08,6.29,3.18,9.44l3.28,9.47c2.05,6.35,4.13,12.7,5.92,19.13,7.39,25.63,12.53,52.12,12.82,78.94a165.62,165.62,0,0,1-4.28,39.91,134.89,134.89,0,0,1-6.24,19.17,109.83,109.83,0,0,1-9.38,17.87A113.11,113.11,0,0,1,708,523.77a136.9,136.9,0,0,1-35.48,18.87,194.36,194.36,0,0,1-39,9.39c-3.31.47-6.63.85-9.95,1.16s-6.65.58-10,.77A190.77,190.77,0,0,1,593.58,554.15Z" transform="translate(-163.33 -30.04)"/><path class="cls-1" d="M544.6,403.36s84.17-9.54,64.21,22.57-50.33,48.59-95.45,8.67C513.36,434.6,499.47,403.36,544.6,403.36Z" transform="translate(-163.33 -30.04)"/><path d="M544.59,403.21c4.08-.45,8.2-.77,12.31-1.1s8.23-.62,12.36-.77c8.25-.29,16.6-.3,24.86,1.27a50.84,50.84,0,0,1,6.13,1.53,29.07,29.07,0,0,1,5.91,2.57,17.1,17.1,0,0,1,2.7,1.9,13.61,13.61,0,0,1,2.26,2.52,10.72,10.72,0,0,1,1.42,3.14,10.54,10.54,0,0,1,.27,3.39c-.4,4.54-3,8.14-5.32,11.48a118.47,118.47,0,0,1-7.6,9.82c-5.41,6.24-11.7,11.89-19.19,15.68a41.9,41.9,0,0,1-24.57,4.27,55.46,55.46,0,0,1-12.27-3,84.46,84.46,0,0,1-11.4-5.33,118.17,118.17,0,0,1-20.12-14.81l-.27-.24-.12-.28a27.71,27.71,0,0,1-1.13-3.49,28.13,28.13,0,0,1-.66-3.53,23.33,23.33,0,0,1,.14-7.22,17.93,17.93,0,0,1,7.64-11.9,31.47,31.47,0,0,1,13-4.85,62.76,62.76,0,0,1,6.82-.8c1.14-.05,2.29-.17,3.43-.18Zm0,.3-3.42.11c-1.14,0-2.27.16-3.4.23a58.2,58.2,0,0,0-6.73,1.07,29.86,29.86,0,0,0-12.11,5.49,16.53,16.53,0,0,0-4.15,4.92,17.22,17.22,0,0,0-1.9,6.06A25.92,25.92,0,0,0,514.76,434l-.39-.53A140.05,140.05,0,0,0,534,447.86a81.55,81.55,0,0,0,10.86,5.34,57.3,57.3,0,0,0,11.61,3.14A41.62,41.62,0,0,0,580,453.27c7.43-3.29,13.85-8.7,19.15-14.91a84,84,0,0,0,7.26-9.91,50.74,50.74,0,0,0,3-5.29,14.4,14.4,0,0,0,1.45-5.6,7.94,7.94,0,0,0-1.61-5.12,13.38,13.38,0,0,0-4.36-3.52,41.22,41.22,0,0,0-11.31-3.68c-2-.41-4-.73-6-1s-4.05-.51-6.08-.7c-4.07-.42-8.16-.67-12.27-.8A179.81,179.81,0,0,0,544.6,403.51Z" transform="translate(-163.33 -30.04)"/><path class="cls-3" d="M418,311.67c17.25,16.05,123.92,70.26,143.15.31s19.24-113.66,15.74-157.38-26-40.76-26-40.76-71,6.61-89,84.89Z" transform="translate(-163.33 -30.04)"/><path class="cls-1" d="M488.85,282.48c-.68-11.58,2.72-28.75,17.49-28.75,16.55,0,23.32,18.1,27.6,31.06.6,1.83,3.5,1,2.89-.79-4.81-14.57-13.15-34.6-31.92-33.22-15.59,1.15-19.82,18.83-19.06,31.7.11,1.91,3.11,1.93,3,0Z" transform="translate(-163.33 -30.04)"/><path d="M623.49,282.48c-.68-11.58,2.73-28.75,17.5-28.75,16.55,0,23.31,18.1,27.6,31.06.6,1.83,3.5,1,2.89-.79-4.81-14.57-13.15-34.6-31.93-33.22-15.59,1.15-19.81,18.83-19.06,31.7.12,1.91,3.12,1.93,3,0Z" transform="translate(-163.33 -30.04)"/><path d="M624.65,500.5c18,2.64,35.92-8.59,41.17-26.07.56-1.85-2.33-2.64-2.89-.79-4.74,15.77-21.12,26.37-37.48,24-1.89-.28-2.7,2.61-.8,2.89Z" transform="translate(-163.33 -30.04)"/><path d="M661.29,464.17c2.49-1.93,6.12-1.06,8.13,1.17s2.67,5.33,2.89,8.27c.07,1,1.57,1,1.5,0-.28-3.8-1.26-8-4.49-10.37a7.45,7.45,0,0,0-9.09-.13c-.77.6.3,1.65,1.06,1.06Z" transform="translate(-163.33 -30.04)"/><path d="M487,746.72a112,112,0,0,0,21.51,32.17c1.34,1.4,3.46-.72,2.12-2.12a109.64,109.64,0,0,1-21-31.56c-.78-1.77-3.36-.24-2.59,1.51Z" transform="translate(-163.33 -30.04)"/><path d="M530.67,750.64,550.9,775c1.23,1.49,3.34-.64,2.12-2.12l-20.23-24.33c-1.23-1.49-3.34.64-2.12,2.12Z" transform="translate(-163.33 -30.04)"/><path d="M593.4,742.15l14,22.37c1,1.63,3.62.13,2.59-1.51l-14-22.38c-1-1.63-3.62-.13-2.59,1.52Z" transform="translate(-163.33 -30.04)"/><path d="M656.2,758.34a138.73,138.73,0,0,1,13.92,26.09c.71,1.77,3.61,1,2.89-.79a142.58,142.58,0,0,0-14.22-26.82c-1.08-1.59-3.68-.09-2.59,1.52Z" transform="translate(-163.33 -30.04)"/><path d="M163.48,620a158.67,158.67,0,0,0,4,43c.44,1.88,3.33,1.09,2.89-.79A155.7,155.7,0,0,1,166.48,620c.09-1.93-2.91-1.93-3,0Z" transform="translate(-163.33 -30.04)"/><path d="M192.52,642.55l9.35,42.71c.42,1.89,3.31,1.09,2.9-.8l-9.36-42.71c-.41-1.88-3.3-1.09-2.89.8Z" transform="translate(-163.33 -30.04)"/><path d="M313.24,617.8a74.74,74.74,0,0,0-48.49-54.29c-1.83-.63-2.62,2.26-.8,2.89a71.67,71.67,0,0,1,46.39,52.2c.42,1.88,3.31,1.09,2.9-.8Z" transform="translate(-163.33 -30.04)"/><path d="M309.53,562l10.13,16.2c1,1.64,3.62.13,2.59-1.51L312.12,560.5c-1-1.63-3.62-.13-2.59,1.52Z" transform="translate(-163.33 -30.04)"/></svg>